<svg width="273" height="30" viewBox="0 0 273 30" fill="none" xmlns="http://www.w3.org/2000/svg">
<g clip-path="url(#clip0_0_528)">
<path d="M26.61 0.5V29.52H19.89V17.62H6.72V29.52H0V0.5H6.72V11.94H19.9V0.5H26.62H26.61Z" fill="white"/>
<path d="M42.35 28.06C39.93 26.76 38.04 24.97 36.67 22.69C35.3 20.41 34.62 17.85 34.62 15C34.62 12.15 35.3 9.58999 36.67 7.30999C38.04 5.02999 39.93 3.23999 42.35 1.93999C44.77 0.63999 47.48 -0.0100098 50.5 -0.0100098C53.52 -0.0100098 56.22 0.63999 58.62 1.93999C61.02 3.23999 62.92 5.02999 64.3 7.30999C65.68 9.58999 66.37 12.15 66.37 15C66.37 17.85 65.68 20.41 64.3 22.69C62.92 24.97 61.03 26.76 58.62 28.06C56.22 29.36 53.51 30.01 50.5 30.01C47.49 30.01 44.77 29.36 42.35 28.06ZM55.14 23.11C56.52 22.32 57.61 21.22 58.39 19.81C59.18 18.4 59.57 16.8 59.57 15C59.57 13.2 59.18 11.6 58.39 10.19C57.6 8.77999 56.52 7.67999 55.14 6.88999C53.76 6.09999 52.21 5.70999 50.5 5.70999C48.79 5.70999 47.24 6.09999 45.86 6.88999C44.48 7.67999 43.39 8.77999 42.61 10.19C41.82 11.6 41.43 13.2 41.43 15C41.43 16.8 41.82 18.4 42.61 19.81C43.4 21.22 44.48 22.32 45.86 23.11C47.24 23.9 48.79 24.29 50.5 24.29C52.21 24.29 53.76 23.9 55.14 23.11Z" fill="white"/>
<path d="M92.86 29.52L87.26 21.44H81.08V29.52H74.36V0.5H86.92C89.49 0.5 91.72 0.93 93.61 1.79C95.5 2.65 96.96 3.86 97.98 5.44C99 7.02 99.51 8.88 99.51 11.04C99.51 13.2 98.99 15.05 97.96 16.62C96.92 18.18 95.45 19.38 93.54 20.21L100.05 29.54H92.84L92.86 29.52ZM91.16 7.28C90.11 6.41 88.58 5.97 86.56 5.97H81.09V16.08H86.56C88.58 16.08 90.11 15.64 91.16 14.75C92.21 13.87 92.74 12.62 92.74 11.02C92.74 9.42 92.22 8.14 91.16 7.27V7.28Z" fill="white"/>
<path d="M113.23 29.08C111.09 28.46 109.37 27.65 108.07 26.65L110.35 21.59C111.59 22.5 113.07 23.24 114.79 23.79C116.5 24.34 118.22 24.62 119.93 24.62C121.84 24.62 123.25 24.34 124.16 23.77C125.07 23.2 125.53 22.45 125.53 21.51C125.53 20.82 125.26 20.25 124.72 19.79C124.18 19.33 123.49 18.97 122.65 18.69C121.81 18.41 120.67 18.11 119.23 17.78C117.02 17.26 115.21 16.73 113.8 16.2C112.39 15.68 111.18 14.83 110.17 13.67C109.16 12.51 108.66 10.96 108.66 9.03C108.66 7.34 109.12 5.82 110.03 4.45C110.94 3.08 112.32 2 114.15 1.2C115.99 0.4 118.23 0 120.89 0C122.74 0 124.55 0.22 126.32 0.66C128.09 1.1 129.64 1.74 130.96 2.57L128.89 7.67C126.21 6.15 123.53 5.39 120.85 5.39C118.97 5.39 117.58 5.69 116.68 6.3C115.78 6.91 115.33 7.71 115.33 8.7C115.33 9.69 115.85 10.43 116.88 10.92C117.92 11.4 119.5 11.88 121.63 12.35C123.84 12.88 125.65 13.4 127.06 13.93C128.47 14.46 129.68 15.28 130.69 16.42C131.7 17.55 132.2 19.09 132.2 21.02C132.2 22.68 131.74 24.19 130.81 25.56C129.88 26.93 128.5 28.01 126.64 28.81C124.78 29.61 122.54 30.01 119.88 30.01C117.59 30.01 115.37 29.7 113.23 29.08Z" fill="white"/>
<path d="M162.77 24.13V29.52H140.3V0.5H162.23V5.89H146.97V12.19H160.44V17.41H146.97V24.13H162.76H162.77Z" fill="white"/>
<path d="M200.21 29.52L200.17 4.69L188.02 25.67H186.98L174.83 4.78V29.53H172.76V0.5H174.54L187.52 22.93L200.5 0.5H202.24L202.28 29.52H200.21Z" fill="white"/>
<path d="M234.09 21.35H217.26L213.57 29.52H211.29L224.64 0.5H226.75L240.1 29.52H237.82L234.09 21.35ZM233.3 19.57L225.67 2.82L218.08 19.57H233.29H233.3Z" fill="white"/>
<path d="M272.73 0.5V29.52H270.99L251.22 4.32V29.52H249.11V0.5H250.89L270.62 25.7V0.5H272.73Z" fill="white"/>
</g>
<defs>
<clipPath id="clip0_0_528">
<rect width="272.73" height="30.01" fill="white"/>
</clipPath>
</defs>
</svg>
