<svg width="40" height="37" viewBox="0 0 40 37" fill="none" xmlns="http://www.w3.org/2000/svg">
<g clip-path="url(#clip0_0_710)">
<path d="M34.8571 0H5.14286C2.30769 0 0 2.29312 0 5.11038V31.894C0 34.7113 2.30769 37.0044 5.14286 37.0044H34.8571C37.6923 37.0044 40 34.7069 40 31.8853V5.11038C40 2.29312 37.6923 0 34.8571 0ZM37.3846 31.8853C37.3846 33.2699 36.2505 34.3968 34.8571 34.3968H5.14286C3.74945 34.3968 2.61538 33.2699 2.61538 31.8853V5.11038C2.61538 3.72577 3.74945 2.59887 5.14286 2.59887H34.8571C36.2505 2.59887 37.3846 3.72577 37.3846 5.11038V31.8853Z" fill="black"/>
<path d="M9.49452 20.14H17.9385C18.6594 20.14 19.2484 19.5591 19.2484 18.8384V10.5526C19.2484 9.83627 18.6638 9.25098 17.9385 9.25098H9.49452C8.77364 9.25098 8.18463 9.8319 8.18463 10.5526V18.8384C8.18463 19.5547 8.76925 20.14 9.49452 20.14ZM10.8044 17.5411V11.8542H16.633V17.5411H10.8044Z" fill="black"/>
<path d="M30.5055 9.25537H24.6593C23.9385 9.25537 23.3495 9.83629 23.3495 10.557C23.3495 11.2777 23.9341 11.8586 24.6593 11.8586H30.5055C31.2264 11.8586 31.8154 11.2777 31.8154 10.557C31.8154 9.83629 31.2308 9.25537 30.5055 9.25537Z" fill="black"/>
<path d="M30.5055 17.5413H24.6593C23.9385 17.5413 23.3495 18.1222 23.3495 18.8429C23.3495 19.5636 23.9341 20.1445 24.6593 20.1445H30.5055C31.2264 20.1445 31.8154 19.5636 31.8154 18.8429C31.8154 18.1222 31.2308 17.5413 30.5055 17.5413Z" fill="black"/>
<path d="M30.5055 25.1458H9.49452C8.77364 25.1458 8.18463 25.7267 8.18463 26.4474C8.18463 27.1681 8.76925 27.749 9.49452 27.749H30.5011C31.222 27.749 31.811 27.1681 31.811 26.4474C31.811 25.7267 31.2264 25.1458 30.5011 25.1458H30.5055Z" fill="black"/>
</g>
<defs>
<clipPath id="clip0_0_710">
<rect width="40" height="37" fill="white"/>
</clipPath>
</defs>
</svg>
