<svg width="24" height="24" viewBox="0 0 24 24" fill="none" xmlns="http://www.w3.org/2000/svg">
<g clip-path="url(#clip0_0_280)">
<path d="M23.9772 5.6169C23.9718 5.184 23.94 4.7541 23.8586 4.3281C23.7598 3.8088 23.6202 3.303 23.3713 2.8332C23.1086 2.337 22.7796 1.8906 22.3724 1.5009C21.7489 0.9036 21.0295 0.4809 20.1918 0.2577C19.4353 0.0558 18.6634 0.0111 17.8861 0.012C17.8849 0.012 17.8819 0.0039 17.8816 0H6.11424C6.11424 0.0039 6.11394 0.0081 6.11364 0.012C5.6723 0.0201 5.23065 0.0168 4.79141 0.0711C4.31044 0.1308 3.83427 0.2208 3.37912 0.3888C2.66216 0.6537 2.03918 1.0665 1.50717 1.6176C0.904301 2.2416 0.479472 2.9637 0.253997 3.8043C0.052841 4.5543 0.00900698 5.3193 0.00780605 6.0897L0 17.8956V17.8968C0.0144112 18.4296 0.0189147 18.9654 0.108684 19.4949C0.203858 20.055 0.340164 20.6013 0.600165 21.1098C0.951437 21.798 1.43421 22.3791 2.04338 22.8537C2.48082 23.1945 2.95849 23.4651 3.4875 23.6358C4.2588 23.8845 5.05442 23.9796 5.86144 23.9844C6.36493 23.9877 6.86842 24.0003 7.37221 23.9982C11.0311 23.9829 14.6901 24.0246 18.3487 23.9757C18.8342 23.9691 19.3119 23.91 19.7883 23.823C20.7016 23.6559 21.509 23.2665 22.1995 22.6509C23.0044 21.9336 23.5472 21.0558 23.7925 19.9962C23.9529 19.3038 23.9931 18.6012 24 17.8959V17.7552C24 17.7006 23.9793 5.775 23.9772 5.6172V5.6169ZM21.0019 16.6134C20.9986 16.6767 20.9833 16.7388 20.9574 16.7991C20.871 16.9992 20.6716 17.1699 20.3483 17.3199C19.952 17.5038 19.3596 17.658 18.5868 17.7795C18.5478 17.8545 18.5057 18.0462 18.4796 18.1656C18.4496 18.3036 18.419 18.4398 18.3763 18.5847C18.3121 18.8049 18.1434 18.9309 17.914 18.9309H17.8933C17.7891 18.9309 17.6537 18.9141 17.4792 18.8799C17.212 18.8277 16.9124 18.7797 16.5344 18.7797C16.3149 18.7797 16.0874 18.7992 15.8586 18.837C15.4175 18.9105 15.0375 19.1787 14.5973 19.4892L14.5964 19.4901C13.9527 19.9449 13.2237 20.46 12.1093 20.46C12.0612 20.46 12.0156 20.4585 11.9787 20.457C11.9487 20.4591 11.918 20.46 11.8877 20.46C10.7736 20.46 10.0443 19.9449 9.39998 19.4898C8.95984 19.1787 8.57945 18.9102 8.13811 18.837C7.90933 18.7989 7.68175 18.7797 7.46228 18.7797C7.06658 18.7797 6.74923 18.8418 6.51745 18.8871C6.35923 18.9177 6.22232 18.9447 6.10343 18.9447C5.78969 18.9447 5.66749 18.753 5.62036 18.5925C5.57682 18.4443 5.5462 18.3048 5.51678 18.1692C5.48885 18.0417 5.44832 17.8554 5.40929 17.781C4.63709 17.6601 4.04443 17.5053 3.64843 17.3214C3.32418 17.1708 3.12482 17.0001 3.03865 16.7988C3.03865 16.7985 3.03835 16.7982 3.03805 16.7976C3.01284 16.7379 2.99812 16.6758 2.99452 16.614C2.98281 16.3989 3.13473 16.2093 3.34729 16.1745C3.88891 16.0854 4.40591 15.8835 4.88388 15.5751C5.27539 15.3222 5.64377 14.9967 5.97823 14.6073C6.56669 13.9224 6.85371 13.2729 6.88464 13.2012C6.88764 13.1943 6.89094 13.1874 6.89394 13.1808C7.01704 12.9312 7.04586 12.7248 6.97891 12.5679C6.84741 12.2583 6.34272 12.0984 6.00916 11.9925C5.91308 11.9619 5.82241 11.9334 5.74585 11.9031C5.45463 11.7882 5.22885 11.6586 5.07513 11.5185C4.79592 11.2638 4.79472 11.0124 4.81873 10.8852C4.85536 10.6929 4.99047 10.5198 5.19943 10.3971C5.36546 10.2996 5.55701 10.2459 5.73895 10.2459C5.85214 10.2459 5.95451 10.2669 6.04428 10.3089C6.34932 10.4517 6.61953 10.5243 6.84651 10.5243C6.98762 10.5243 7.08339 10.4958 7.14224 10.4685C7.13443 10.3356 7.12572 10.1991 7.11762 10.0683V10.0665C7.04076 8.8458 6.94498 7.3269 7.34759 6.4254C7.62231 5.8095 7.99159 5.2794 8.44494 4.8492C8.82504 4.4883 9.26698 4.1955 9.75816 3.9789C10.6174 3.6 11.4172 3.5436 11.8172 3.5436C11.8337 3.5436 12.0159 3.5415 12.1267 3.5406C12.1405 3.5406 12.1552 3.5406 12.1708 3.5406H12.1717C12.5719 3.5406 13.3721 3.5967 14.2298 3.9729C14.7228 4.1892 15.1663 4.482 15.5478 4.8432C16.003 5.2743 16.3735 5.8056 16.6494 6.4239C17.052 7.3263 16.9562 8.8464 16.8791 10.0677L16.8761 10.1193C16.8686 10.2399 16.8614 10.3557 16.8548 10.4685C16.907 10.4922 16.9878 10.5174 17.1031 10.5231C17.3195 10.5129 17.572 10.4409 17.8536 10.3092C17.9851 10.2477 18.1241 10.2351 18.2181 10.2351C18.3559 10.2351 18.4913 10.2609 18.6102 10.3101C18.9618 10.4358 19.1828 10.6926 19.1885 10.9812C19.1906 11.1006 19.1545 11.283 18.9696 11.4735C18.8147 11.6331 18.5799 11.7738 18.2514 11.9034C18.1755 11.9334 18.0845 11.9622 17.9878 11.9928C17.6543 12.0987 17.1499 12.2586 17.0184 12.5679C16.9517 12.7251 16.98 12.9315 17.1031 13.1811C17.1064 13.1877 17.1097 13.1946 17.1127 13.2015C17.1574 13.3065 18.2421 15.7785 20.6497 16.1748C20.8626 16.2096 21.0148 16.3995 21.0025 16.6143L21.0019 16.6134Z" fill="#1D1D1B"/>
</g>
<defs>
<clipPath id="clip0_0_280">
<rect width="24" height="24" fill="white"/>
</clipPath>
</defs>
</svg>
