<svg width="52" height="44" viewBox="0 0 52 44" fill="none" xmlns="http://www.w3.org/2000/svg">
<g clip-path="url(#clip0_0_1324)">
<path d="M35.2585 28.1299H35.2778C36.721 28.1299 38.1306 27.5427 39.1456 26.5222L42.3641 23.302C44.5001 21.16 44.5001 17.6799 42.3641 15.5379L28.4368 1.59806C26.296 -0.534313 22.8178 -0.534313 20.677 1.59806L17.4585 4.81827C16.4242 5.85317 15.8517 7.23464 15.8517 8.69794C15.8517 10.166 16.4242 11.5427 17.4585 12.5776L21.6536 16.775L1.07773 37.367C-0.360697 38.8207 -0.360697 41.1841 1.08255 42.6426L1.35195 42.9073C2.0399 43.6005 2.99243 43.9952 3.99308 43.9952C4.99373 43.9952 5.92703 43.6005 6.61978 42.9073L27.1956 22.3201L29.702 24.8279C29.7261 24.852 29.7453 24.876 29.7501 24.876L31.3858 26.5126C32.4057 27.5379 33.8153 28.1251 35.2585 28.1251V28.1299ZM37.4426 14.1757L30.0244 21.5981L22.3752 13.9446L29.7982 6.52224L37.4426 14.1757ZM19.2241 10.787C18.0743 9.62694 18.0791 7.74487 19.2385 6.59445L22.4473 3.37904C23.0102 2.81587 23.7559 2.5078 24.5593 2.5078C25.3627 2.5078 26.1035 2.82549 26.6568 3.37904L28.0134 4.74126L20.5952 12.1685L19.2193 10.7918L19.2241 10.787ZM25.4156 20.5439L4.84459 41.1311C4.37314 41.6029 3.60822 41.6029 3.13676 41.1311L2.85773 40.852C2.63162 40.6257 2.50654 40.3225 2.50654 40C2.50654 39.6775 2.63162 39.379 2.86254 39.148L23.4384 18.5656L25.4204 20.5487L25.4156 20.5439ZM33.161 24.7413L31.7899 23.3694L39.2178 15.9567L40.5793 17.3189C41.7339 18.4789 41.7339 20.3658 40.5793 21.5259L37.3705 24.7413C36.211 25.8965 34.3204 25.8965 33.161 24.7413Z" fill="black"/>
<path d="M49.4456 40.0337H33.5555C32.1508 40.0337 31.0058 41.1745 31.001 42.58V42.7389C31.001 43.432 31.5638 43.9952 32.2566 43.9952H50.7349C51.4084 43.9952 51.9568 43.4657 51.9905 42.7677V42.58C51.9905 41.1745 50.8407 40.0337 49.436 40.0337H49.4456Z" fill="black"/>
</g>
<defs>
<clipPath id="clip0_0_1324">
<rect width="52" height="44" fill="white"/>
</clipPath>
</defs>
</svg>
