<svg width="40" height="38" viewBox="0 0 40 38" fill="none" xmlns="http://www.w3.org/2000/svg">
<g clip-path="url(#clip0_0_1615)">
<path d="M31.8659 3.20142H30.3034V1.38549C30.3034 0.623245 29.6739 0 28.904 0C28.1341 0 27.5045 0.623245 27.5045 1.38549V3.19693H12.5136V1.38549C12.5136 0.623245 11.8841 0 11.1141 0C10.3442 0 9.71467 0.623245 9.71467 1.38549V3.19693H8.13406C3.65036 3.20142 0 6.81086 0 11.2498V29.9471C0 34.3861 3.65036 38 8.13406 38H31.8659C36.3496 38 40 34.3861 40 29.9471V11.2498C40 6.81086 36.3496 3.19693 31.8659 3.19693V3.20142ZM31.8841 35.229H8.15217C5.21286 35.229 2.82156 32.8616 2.82156 29.9516V11.2498C2.82156 8.33982 5.21286 5.97239 8.15217 5.97239H9.73279V7.80177C9.73279 8.56401 10.3623 9.18726 11.1322 9.18726C11.9022 9.18726 12.5317 8.56401 12.5317 7.80177V5.97239H27.5226V7.80177C27.5226 8.56401 28.1522 9.18726 28.9221 9.18726C29.692 9.18726 30.3216 8.56401 30.3216 7.80177V5.97239H31.9022C34.8415 5.97239 37.2328 8.33982 37.2328 11.2498V30.2251H37.2101L37.1966 30.3776C36.9701 33.1396 34.6875 35.2201 31.8841 35.2201V35.229Z" fill="black"/>
<path d="M27.3142 18.2041H22.3957L20.8695 13.5724C20.6023 12.7563 19.4383 12.7563 19.1711 13.5724L17.6448 18.2041H12.7264C11.8613 18.2041 11.499 19.3071 12.2055 19.8138L16.1774 22.661L14.6557 27.2793C14.3885 28.0953 15.326 28.7813 16.028 28.2791L20.018 25.4185L24.0081 28.2791C24.7101 28.7813 25.6521 28.0998 25.3803 27.2793L23.8586 22.661L27.8305 19.8138C28.5325 19.3071 28.1747 18.2041 27.3097 18.2041H27.3142Z" fill="black"/>
</g>
<defs>
<clipPath id="clip0_0_1615">
<rect width="40" height="38" fill="white"/>
</clipPath>
</defs>
</svg>
