<svg width="24" height="24" viewBox="0 0 24 24" fill="none" xmlns="http://www.w3.org/2000/svg">
<g clip-path="url(#clip0_0_1711)">
<path d="M22.6755 0H1.32452C0.592807 0 0 0.5931 0 1.3245V22.6752C0 23.4066 0.592807 23.9997 1.32452 23.9997H12.8192V14.7057H9.69162V11.0835H12.8192V8.4123C12.8192 5.3124 14.7125 3.6243 17.4779 3.6243C18.8024 3.6243 19.9409 3.723 20.2728 3.7671V7.0068L18.3548 7.0077C16.8509 7.0077 16.5599 7.7223 16.5599 8.7711V11.0838H20.1467L19.6796 14.706H16.5599V24H22.6758C23.4072 24 24.0003 23.4069 24.0003 22.6755V1.3245C24.0003 0.5928 23.4072 0 22.6758 0H22.6755Z" fill="#1D1D1B"/>
</g>
<defs>
<clipPath id="clip0_0_1711">
<rect width="24" height="24" fill="white"/>
</clipPath>
</defs>
</svg>
