<svg width="20" height="22" viewBox="0 0 20 22" fill="none" xmlns="http://www.w3.org/2000/svg">
<g clip-path="url(#clip0_0_1718)">
<path d="M19.4085 7.97936L11.2773 0.50527C10.5616 -0.168423 9.44086 -0.168423 8.72515 0.50527L0.591451 7.97692C0.216203 8.31621 0 8.80683 0 9.32187V20.2499C0 21.2311 0.82008 21.9976 1.8663 21.9976H5.93191C6.97813 21.9976 7.79821 21.2287 7.79821 20.2499V13.9743C7.79821 13.7326 8.00199 13.4397 8.25547 13.4397H11.4513C11.7048 13.4397 11.9085 13.7326 11.9085 13.9743V20.2499C11.9085 21.2311 12.7286 21.9976 13.7749 21.9976H18.1312C19.1774 21.9976 19.9975 21.2287 19.9975 20.2499V9.32187C19.9975 8.82148 19.7937 8.35771 19.4061 7.97692L19.4085 7.97936ZM11.4513 12.0557H8.25547C7.24404 12.0557 6.38916 12.9344 6.38916 13.9743V20.2499C6.38916 20.5184 6.14314 20.6136 5.93191 20.6136H1.8663C1.65507 20.6136 1.40905 20.5184 1.40905 20.2499V9.32187C1.40905 9.18274 1.45378 9.07045 1.54324 8.98258L9.67445 1.51093C9.85586 1.35471 10.1317 1.35227 10.2908 1.50849L18.422 8.98014C18.5139 9.07045 18.5611 9.18274 18.5611 9.32187V20.2499C18.5611 20.5184 18.3151 20.6136 18.1039 20.6136H13.7749C13.5636 20.6136 13.3176 20.5184 13.3176 20.2499V13.9743C13.3176 12.9344 12.4627 12.0557 11.4513 12.0557Z" fill="white"/>
</g>
<defs>
<clipPath id="clip0_0_1718">
<rect width="20" height="22" fill="white"/>
</clipPath>
</defs>
</svg>
