<svg width="23" height="24" viewBox="0 0 23 24" fill="none" xmlns="http://www.w3.org/2000/svg">
<g clip-path="url(#clip0_0_1706)">
<path d="M11.524 9.07886C9.95104 9.07886 8.67627 10.4097 8.67627 12.0513C8.67627 13.6929 9.95104 15.0237 11.524 15.0237C13.0969 15.0237 14.3725 13.6929 14.3725 12.0513C14.3725 10.4097 13.0972 9.07886 11.524 9.07886Z" fill="#1D1D1B"/>
<path d="M18.1858 6.79255C18.0306 6.37615 17.846 6.07885 17.5467 5.76685C17.2474 5.45485 16.9628 5.26135 16.5638 5.09995C16.2622 4.97875 15.8099 4.83295 14.9771 4.79335C14.0757 4.75045 13.8049 4.74146 11.5239 4.74146C9.24287 4.74146 8.97262 4.75015 8.07188 4.79335C7.23871 4.83295 6.78589 4.97755 6.48517 5.09995C6.08554 5.26135 5.80121 5.45455 5.50221 5.76685C5.20349 6.07915 5.01834 6.37615 4.86309 6.79255C4.74694 7.10725 4.60722 7.57915 4.56927 8.44825C4.52844 9.38875 4.51953 9.67045 4.51953 12.0516C4.51953 14.4327 4.52787 14.715 4.56927 15.6549C4.60722 16.5243 4.74579 16.9968 4.86309 17.3106C5.01777 17.727 5.20292 18.0237 5.50221 18.3354C5.80149 18.6471 6.08612 18.8403 6.48517 19.0023C6.78618 19.1247 7.23899 19.2693 8.07188 19.3089C8.97233 19.3524 9.24201 19.3608 11.5239 19.3608C13.8058 19.3608 14.0763 19.3521 14.9771 19.3089C15.8102 19.2693 16.263 19.1247 16.5638 19.0023C16.9628 18.8403 17.2477 18.6468 17.5467 18.3354C17.8457 18.0237 18.0306 17.7267 18.1858 17.3106C18.3023 16.9965 18.4417 16.524 18.4797 15.6549C18.5211 14.7144 18.5294 14.4327 18.5294 12.0516C18.5294 9.67045 18.5211 9.38905 18.4797 8.44825C18.4417 7.57885 18.3031 7.10635 18.1858 6.79255ZM11.5242 16.6296C9.10084 16.6296 7.13664 14.58 7.13664 12.0513C7.13664 9.52255 9.10084 7.47296 11.5242 7.47296C13.9475 7.47296 15.9117 9.52255 15.9117 12.0513C15.9117 14.58 13.9475 16.6296 11.5242 16.6296ZM16.0851 8.36186C15.5187 8.36186 15.0599 7.88246 15.0601 7.29146C15.0607 6.70076 15.5196 6.22225 16.0854 6.22195H16.0857C16.652 6.22195 17.1109 6.70135 17.1106 7.29236C17.1103 7.88335 16.6512 8.36216 16.0848 8.36186H16.0851Z" fill="#1D1D1B"/>
<path d="M22.9186 6.0852C22.8565 4.6578 22.6288 3.8826 22.4359 3.3669C22.1809 2.6835 21.8782 2.1957 21.3866 1.6836C20.8949 1.1715 20.4283 0.8532 19.7734 0.5886C19.2777 0.3888 18.536 0.15 17.1684 0.0849C15.6883 0.0156 15.2456 0 11.4994 0C7.7533 0 7.31055 0.0144 5.83136 0.0849C4.46344 0.1497 3.72054 0.3873 3.22633 0.5886C2.57083 0.8532 2.10392 1.1715 1.61316 1.6836C1.12298 2.1972 0.8188 2.6844 0.563788 3.3678C0.372313 3.885 0.143463 4.659 0.081075 6.0861C0.01495 7.6299 0 8.0922 0 12.0012C0 15.9102 0.0138 16.3728 0.0819375 17.9157C0.144038 19.3431 0.371737 20.1183 0.56465 20.634C0.818225 21.3174 1.1224 21.8046 1.61402 22.3167C2.10565 22.8288 2.57226 23.1456 3.22719 23.4117C3.7214 23.6127 4.46459 23.8503 5.83223 23.9154C7.31084 23.9868 7.75502 24.0003 11.4997 24.0003C15.2444 24.0003 15.69 23.9859 17.1686 23.9154C18.5366 23.8506 19.2795 23.613 19.7737 23.4117C20.4286 23.1456 20.8961 22.8288 21.3868 22.3167C21.8776 21.8046 22.1812 21.3174 22.4362 20.634C22.6277 20.1183 22.8565 19.3428 22.9189 17.9157C22.9865 16.3713 23.0003 15.9078 23.0003 12.0003C23.0003 8.0928 22.9865 7.6293 22.9189 6.0849L22.9186 6.0852ZM20.0166 15.7272C19.9758 16.6764 19.8309 17.3247 19.6199 17.8914C19.4011 18.4776 19.1098 18.9753 18.6343 19.4709C18.1588 19.9665 17.6824 20.271 17.1206 20.4993C16.5775 20.7198 15.9563 20.8701 15.0466 20.9133C14.1355 20.9571 13.8443 20.9673 11.5239 20.9673C9.20345 20.9673 8.9125 20.9565 8.00112 20.9133C7.09148 20.8701 6.47105 20.7195 5.9271 20.4993C5.36446 20.271 4.88894 19.9662 4.41341 19.4709C3.93789 18.9756 3.64608 18.4776 3.42786 17.8914C3.21655 17.3247 3.07251 16.6764 3.03111 15.7272C2.98914 14.7765 2.97936 14.4726 2.97936 12.0513C2.97936 9.63 2.98914 9.3261 3.03111 8.3754C3.07251 7.4262 3.21684 6.7779 3.42786 6.2112C3.64608 5.6241 3.93789 5.1273 4.41341 4.6317C4.88894 4.1364 5.36532 3.831 5.9271 3.6033C6.4699 3.3828 7.09148 3.2325 8.00112 3.1893H8.00141C8.91308 3.1455 9.20489 3.1353 11.5247 3.1353C13.8446 3.1353 14.1361 3.1458 15.0472 3.1893C15.9563 3.2319 16.5773 3.3831 17.1212 3.6033C17.6824 3.831 18.1594 4.1355 18.634 4.6317C19.109 5.1279 19.4008 5.625 19.6196 6.2112C19.8309 6.7776 19.9749 7.4262 20.0163 8.3754C20.0577 9.3261 20.0675 9.63 20.0675 12.0513C20.0675 14.4726 20.0577 14.7759 20.0163 15.7272H20.0166Z" fill="#1D1D1B"/>
</g>
<defs>
<clipPath id="clip0_0_1706">
<rect width="23" height="24" fill="white"/>
</clipPath>
</defs>
</svg>
