<svg width="388" height="70" viewBox="0 0 388 70" fill="none" xmlns="http://www.w3.org/2000/svg">
<path d="M0.9 65V64.16L2.44 63.84C2.74 63.78 2.84 63.66 2.84 63.42V52.98C2.84 52.76 2.74 52.64 2.44 52.58L0.9 52.26V51.42H7.06C11.76 51.42 14.38 53.98 14.38 58.22C14.38 62.46 11.74 65 7.04 65H0.9ZM6.44 64.12H7.42C10.04 64.12 11.44 62.62 11.44 58.22C11.44 53.82 10.06 52.3 7.36 52.3H6.9C6.38 52.3 5.8 52.32 5.46 52.34V63.32C5.46 63.96 5.62 64.12 6.44 64.12ZM23.2739 64.8L23.1939 62.66C22.7339 64.26 21.6139 65.28 19.8139 65.28C18.1539 65.28 16.9739 64.3 16.9739 62.14V56.76C16.9739 56.52 16.9139 56.4 16.6739 56.34L15.4139 56.04V55.28H19.3739L19.2939 56.98V62.3C19.2939 63.8 19.8339 64.14 20.7139 64.14C21.8139 64.14 22.8339 62.98 22.8339 60.62V56.76C22.8339 56.52 22.7739 56.4 22.5339 56.34L21.2939 56.04V55.28H25.2139L25.1339 57.06V63.52C25.1339 63.78 25.2139 63.88 25.4339 63.94L26.5939 64.26V65H23.4939L23.2739 64.8ZM33.4741 64.52C34.9541 64.52 35.7541 63.1 35.7541 60.08C35.7541 57.6 35.3541 56 33.7541 56C32.5341 56 31.3541 57.3 31.3541 59.58V63C31.7141 64.02 32.4341 64.52 33.4741 64.52ZM33.1141 68.86V69.6H27.5341V68.86L28.7541 68.54C28.9741 68.48 29.0541 68.34 29.0541 68.14V56.94C29.0541 56.72 28.9941 56.62 28.7341 56.6L27.2741 56.48V55.82L30.5141 55.04L31.1741 55.18L30.9941 57.56C31.4541 56 32.5341 55.02 34.1541 55.02C36.4141 55.02 38.2741 56.96 38.2741 60.08C38.2741 63.5 35.8741 65.3 33.5941 65.3C32.8141 65.3 32.0141 65.14 31.3541 64.78V68.14C31.3541 68.34 31.4341 68.48 31.6741 68.54L33.1141 68.86ZM39.5839 65V64.26L40.8039 63.94C41.0239 63.88 41.1239 63.74 41.1239 63.54V51.44C41.1239 51.22 41.0239 51.12 40.7839 51.1L39.6439 50.96V50.2L42.8839 49.62L43.5639 49.74L43.4039 52.14V63.54C43.4039 63.74 43.4839 63.88 43.7239 63.94L44.9439 64.26V65H39.5839ZM52.3497 58.94L52.3897 58.64C52.4097 58.42 52.4097 58.2 52.4097 58C52.4097 56.68 51.9697 55.78 50.8097 55.78C49.7297 55.78 48.8497 56.7 48.6897 59.2L52.3497 58.94ZM54.7097 62.98C53.8497 64.24 52.7497 65.26 50.7497 65.26C48.4697 65.26 46.1297 63.54 46.1297 60.16C46.1297 56.66 48.5897 55 50.8297 55C53.2897 55 54.6697 56.52 54.6697 58.74C54.6697 59.16 54.6097 59.6 54.5497 59.94H48.6497V60.16C48.6497 62.72 49.7097 64.12 51.3297 64.12C52.4897 64.12 53.3697 63.54 54.1497 62.58L54.7097 62.98ZM59.5125 64.26V65H55.5125V64.28L56.7125 63.98C57.0925 63.88 57.2925 63.76 57.4925 63.46L59.8725 60.14L57.7325 56.74C57.5525 56.44 57.4325 56.34 57.1125 56.28L55.9525 56V55.28H61.2725V56L60.5925 56.16C60.2125 56.26 60.1925 56.42 60.3925 56.78L61.6525 58.96L63.1125 56.8C63.3125 56.5 63.3125 56.3 62.9925 56.2L62.3125 56.02V55.28H65.9925V56L64.8925 56.3C64.5525 56.4 64.3525 56.54 64.1325 56.84L62.0725 59.66L64.5325 63.54C64.7125 63.78 64.8325 63.92 65.0925 63.96L66.3125 64.28V65H60.7525V64.28L61.6125 64.08C62.0125 64 62.0125 63.82 61.8125 63.46L60.3125 60.86L58.5125 63.5C58.3325 63.76 58.3525 63.96 58.6525 64.02L59.5125 64.26ZM77.6895 69.6H72.1295V68.86L73.5495 68.54C73.7895 68.48 73.8695 68.34 73.8695 68.14V66.56L74.1295 63.06C73.6295 64.44 72.5895 65.3 71.0695 65.3C69.0695 65.3 66.9695 63.68 66.9695 60.18C66.9695 56.76 69.2895 55.02 71.7095 55.02C72.9095 55.02 74.1095 55.42 74.8895 56.22L75.6695 54.84L76.3695 54.9L76.1695 57.94V68.14C76.1695 68.34 76.2695 68.48 76.4895 68.54L77.6895 68.86V69.6ZM71.6095 64.34C72.7895 64.34 73.8695 62.96 73.8695 60.74V57.36C73.4695 56.32 72.7295 55.8 71.8095 55.8C70.2495 55.8 69.4895 57.16 69.4895 60.14C69.4895 62.98 70.1695 64.34 71.6095 64.34ZM85.813 64.8L85.733 62.66C85.273 64.26 84.153 65.28 82.353 65.28C80.693 65.28 79.513 64.3 79.513 62.14V56.76C79.513 56.52 79.453 56.4 79.213 56.34L77.953 56.04V55.28H81.913L81.833 56.98V62.3C81.833 63.8 82.373 64.14 83.253 64.14C84.353 64.14 85.373 62.98 85.373 60.62V56.76C85.373 56.52 85.313 56.4 85.073 56.34L83.833 56.04V55.28H87.753L87.673 57.06V63.52C87.673 63.78 87.753 63.88 87.973 63.94L89.133 64.26V65H86.033L85.813 64.8ZM96.3927 58.94L96.4327 58.64C96.4527 58.42 96.4527 58.2 96.4527 58C96.4527 56.68 96.0127 55.78 94.8527 55.78C93.7727 55.78 92.8927 56.7 92.7327 59.2L96.3927 58.94ZM98.7527 62.98C97.8927 64.24 96.7927 65.26 94.7927 65.26C92.5127 65.26 90.1727 63.54 90.1727 60.16C90.1727 56.66 92.6327 55 94.8727 55C97.3327 55 98.7127 56.52 98.7127 58.74C98.7127 59.16 98.6527 59.6 98.5927 59.94H92.6927V60.16C92.6927 62.72 93.7527 64.12 95.3727 64.12C96.5327 64.12 97.4127 63.54 98.1927 62.58L98.7527 62.98ZM107.014 53.04C106.154 53.04 105.454 52.42 105.454 51.5C105.454 50.56 106.154 49.98 107.014 49.98C107.934 49.98 108.594 50.56 108.594 51.5C108.594 52.46 107.934 53.04 107.014 53.04ZM104.594 65V64.26L105.794 63.94C106.014 63.88 106.114 63.74 106.114 63.54V56.98C106.114 56.76 106.054 56.66 105.774 56.64L104.334 56.52V55.84L107.854 55.02L108.554 55.16L108.414 57.5V63.54C108.414 63.74 108.494 63.88 108.714 63.94L109.934 64.26V65H104.594ZM118.727 62.28C118.727 64.18 117.287 65.28 115.207 65.28C114.067 65.28 113.167 65 112.507 64.46L112.227 65.28H111.547L111.567 61.48H112.407C112.427 61.58 112.907 62.9 112.947 63C113.287 63.9 114.047 64.5 115.167 64.5C116.287 64.5 116.987 64 116.987 63.06C116.987 61.94 116.047 61.58 114.547 61.02C113.067 60.5 111.767 59.76 111.767 57.88C111.767 56.26 113.107 55 115.087 55C116.087 55 116.867 55.26 117.447 55.76L117.727 55H118.367V58.52H117.527C117.507 58.42 117.107 57.24 117.067 57.16C116.767 56.32 116.147 55.78 115.167 55.78C114.087 55.78 113.507 56.4 113.507 57.14C113.507 58.24 114.427 58.54 115.887 59.06C117.307 59.56 118.727 60.38 118.727 62.28ZM125.107 64.32C126.387 64.32 127.327 62.94 127.327 60.54V57.42C126.927 56.26 126.167 55.78 125.247 55.78C123.787 55.78 122.927 57.12 122.927 60.14C122.927 63 123.667 64.32 125.107 64.32ZM127.787 64.8L127.727 62.54C127.267 64.32 126.107 65.26 124.567 65.26C122.547 65.26 120.427 63.62 120.427 60.16C120.427 56.92 122.687 55 125.147 55C125.887 55 126.667 55.18 127.327 55.54V51.48C127.327 51.24 127.247 51.14 127.007 51.12L125.667 51V50.24L129.087 49.62L129.767 49.74L129.627 52.14V63.54C129.627 63.74 129.727 63.88 129.947 63.94L131.167 64.26V65H127.987L127.787 64.8ZM138.541 58.94L138.581 58.64C138.601 58.42 138.601 58.2 138.601 58C138.601 56.68 138.161 55.78 137.001 55.78C135.921 55.78 135.041 56.7 134.881 59.2L138.541 58.94ZM140.901 62.98C140.041 64.24 138.941 65.26 136.941 65.26C134.661 65.26 132.321 63.54 132.321 60.16C132.321 56.66 134.781 55 137.021 55C139.481 55 140.861 56.52 140.861 58.74C140.861 59.16 140.801 59.6 140.741 59.94H134.841V60.16C134.841 62.72 135.901 64.12 137.521 64.12C138.681 64.12 139.561 63.54 140.341 62.58L140.901 62.98ZM147.858 64.24V65H142.738V64.26L143.898 63.94C144.118 63.88 144.218 63.74 144.218 63.54V56.94C144.218 56.72 144.138 56.62 143.878 56.6L142.478 56.48V55.8L145.658 55.04L146.318 55.18L146.138 58.02C146.618 56.2 147.818 55 149.658 55C151.418 55 152.218 56.08 152.218 57.84C152.718 56.1 153.898 55 155.678 55C157.558 55 158.538 56.06 158.538 58.04V63.54C158.538 63.74 158.618 63.88 158.838 63.94L160.018 64.26V65H154.878V64.24L155.938 63.94C156.178 63.88 156.258 63.74 156.258 63.54V57.84C156.258 56.58 155.718 56.12 154.838 56.12C153.678 56.12 152.518 57.52 152.518 59.98V63.54C152.518 63.74 152.618 63.88 152.838 63.94L153.878 64.24V65H148.858V64.24L149.938 63.94C150.178 63.88 150.238 63.74 150.238 63.54V57.84C150.238 56.58 149.718 56.12 148.838 56.12C147.678 56.12 146.498 57.58 146.498 59.98V63.54C146.498 63.74 146.558 63.88 146.798 63.94L147.858 64.24ZM169.892 64.32C171.172 64.32 172.112 62.94 172.112 60.54V57.42C171.712 56.26 170.952 55.78 170.032 55.78C168.572 55.78 167.712 57.12 167.712 60.14C167.712 63 168.452 64.32 169.892 64.32ZM172.572 64.8L172.512 62.54C172.052 64.32 170.892 65.26 169.352 65.26C167.332 65.26 165.212 63.62 165.212 60.16C165.212 56.92 167.472 55 169.932 55C170.672 55 171.452 55.18 172.112 55.54V51.48C172.112 51.24 172.032 51.14 171.792 51.12L170.452 51V50.24L173.872 49.62L174.552 49.74L174.412 52.14V63.54C174.412 63.74 174.512 63.88 174.732 63.94L175.952 64.26V65H172.772L172.572 64.8ZM179.885 53.04C179.025 53.04 178.325 52.42 178.325 51.5C178.325 50.56 179.025 49.98 179.885 49.98C180.805 49.98 181.465 50.56 181.465 51.5C181.465 52.46 180.805 53.04 179.885 53.04ZM177.465 65V64.26L178.665 63.94C178.885 63.88 178.985 63.74 178.985 63.54V56.98C178.985 56.76 178.925 56.66 178.645 56.64L177.205 56.52V55.84L180.725 55.02L181.425 55.16L181.285 57.5V63.54C181.285 63.74 181.365 63.88 181.585 63.94L182.805 64.26V65H177.465ZM190.279 58.94L190.319 58.64C190.339 58.42 190.339 58.2 190.339 58C190.339 56.68 189.899 55.78 188.739 55.78C187.659 55.78 186.779 56.7 186.619 59.2L190.279 58.94ZM192.639 62.98C191.779 64.24 190.679 65.26 188.679 65.26C186.399 65.26 184.059 63.54 184.059 60.16C184.059 56.66 186.519 55 188.759 55C191.219 55 192.599 56.52 192.599 58.74C192.599 59.16 192.539 59.6 192.479 59.94H186.579V60.16C186.579 62.72 187.639 64.12 189.259 64.12C190.419 64.12 191.299 63.54 192.079 62.58L192.639 62.98ZM204.338 60.02C204.338 63.2 202.278 65.28 199.518 65.28C198.298 65.28 197.138 64.92 196.358 64.16L195.678 65.22L194.878 65.16L195.118 62.32V51.44C195.118 51.22 195.018 51.12 194.798 51.1L193.638 50.96V50.2L196.878 49.62L197.558 49.74L197.418 52.14V53.68L197.158 57.14C197.658 55.78 198.678 55 200.198 55C202.598 55 204.338 57.1 204.338 60.02ZM199.398 64.52C201.258 64.52 201.798 62.72 201.798 60.06C201.798 57.68 201.378 55.98 199.778 55.98C198.378 55.98 197.418 57.32 197.418 59.6V63.38C197.818 64.16 198.558 64.52 199.398 64.52ZM213.118 64.8L213.038 62.66C212.578 64.26 211.458 65.28 209.658 65.28C207.998 65.28 206.818 64.3 206.818 62.14V56.76C206.818 56.52 206.758 56.4 206.518 56.34L205.258 56.04V55.28H209.218L209.138 56.98V62.3C209.138 63.8 209.678 64.14 210.558 64.14C211.658 64.14 212.678 62.98 212.678 60.62V56.76C212.678 56.52 212.618 56.4 212.378 56.34L211.138 56.04V55.28H215.058L214.978 57.06V63.52C214.978 63.78 215.058 63.88 215.278 63.94L216.438 64.26V65H213.338L213.118 64.8ZM224.918 62.28C224.918 64.18 223.478 65.28 221.398 65.28C220.258 65.28 219.358 65 218.698 64.46L218.418 65.28H217.738L217.758 61.48H218.598C218.618 61.58 219.098 62.9 219.138 63C219.478 63.9 220.238 64.5 221.358 64.5C222.478 64.5 223.178 64 223.178 63.06C223.178 61.94 222.238 61.58 220.738 61.02C219.258 60.5 217.958 59.76 217.958 57.88C217.958 56.26 219.298 55 221.278 55C222.278 55 223.058 55.26 223.638 55.76L223.918 55H224.558V58.52H223.718C223.698 58.42 223.298 57.24 223.258 57.16C222.958 56.32 222.338 55.78 221.358 55.78C220.278 55.78 219.698 56.4 219.698 57.14C219.698 58.24 220.618 58.54 222.078 59.06C223.498 59.56 224.918 60.38 224.918 62.28ZM234.422 64.22C235.462 64.22 236.342 63.34 236.342 62.1C236.342 61.5 236.342 60.76 236.342 60C234.502 60.34 233.102 60.86 233.102 62.78C233.102 63.66 233.562 64.22 234.422 64.22ZM240.702 62.58C240.522 64.34 239.982 65.16 238.622 65.16C237.662 65.16 236.962 64.74 236.722 63.64C236.102 64.66 234.862 65.28 233.542 65.28C231.782 65.28 230.762 64.4 230.762 62.96C230.762 60.42 233.842 59.58 236.362 59.26C236.362 58.7 236.362 58.16 236.362 57.68C236.362 56.38 235.822 55.78 234.622 55.78C233.802 55.78 233.142 56.08 232.742 56.5C233.362 56.54 233.742 57 233.742 57.66C233.742 58.4 233.202 58.86 232.462 58.86C231.702 58.86 231.182 58.34 231.182 57.46C231.182 56.12 232.722 55 234.822 55C237.242 55 238.602 56.04 238.602 58.3C238.602 59.72 238.562 61.62 238.562 63.04C238.562 63.88 238.782 64.14 239.202 64.14C239.702 64.14 239.922 63.66 240.082 62.54L240.702 62.58ZM250.143 62.84C249.263 64.22 248.063 65.26 246.003 65.26C243.663 65.26 241.403 63.5 241.403 60.18C241.403 56.78 243.763 55 246.383 55C248.343 55 249.843 56 249.843 57.5C249.843 58.46 249.163 58.96 248.443 58.96C247.703 58.96 247.103 58.44 247.103 57.7C247.103 56.96 247.603 56.46 248.143 56.48C247.803 56.04 247.243 55.78 246.523 55.78C244.923 55.78 243.923 57.14 243.923 60C243.923 62.64 244.863 64.12 246.623 64.12C247.883 64.12 248.763 63.46 249.563 62.44L250.143 62.84ZM260.124 62.84C259.244 64.22 258.044 65.26 255.984 65.26C253.644 65.26 251.384 63.5 251.384 60.18C251.384 56.78 253.744 55 256.364 55C258.324 55 259.824 56 259.824 57.5C259.824 58.46 259.144 58.96 258.424 58.96C257.684 58.96 257.084 58.44 257.084 57.7C257.084 56.96 257.584 56.46 258.124 56.48C257.784 56.04 257.224 55.78 256.504 55.78C254.904 55.78 253.904 57.14 253.904 60C253.904 62.64 254.844 64.12 256.604 64.12C257.864 64.12 258.744 63.46 259.544 62.44L260.124 62.84ZM264.182 53.04C263.322 53.04 262.622 52.42 262.622 51.5C262.622 50.56 263.322 49.98 264.182 49.98C265.102 49.98 265.762 50.56 265.762 51.5C265.762 52.46 265.102 53.04 264.182 53.04ZM261.762 65V64.26L262.962 63.94C263.182 63.88 263.282 63.74 263.282 63.54V56.98C263.282 56.76 263.222 56.66 262.942 56.64L261.502 56.52V55.84L265.022 55.02L265.722 55.16L265.582 57.5V63.54C265.582 63.74 265.662 63.88 265.882 63.94L267.102 64.26V65H261.762ZM273.036 64.32C274.316 64.32 275.256 62.94 275.256 60.54V57.42C274.856 56.26 274.096 55.78 273.176 55.78C271.716 55.78 270.856 57.12 270.856 60.14C270.856 63 271.596 64.32 273.036 64.32ZM275.716 64.8L275.656 62.54C275.196 64.32 274.036 65.26 272.496 65.26C270.476 65.26 268.356 63.62 268.356 60.16C268.356 56.92 270.616 55 273.076 55C273.816 55 274.596 55.18 275.256 55.54V51.48C275.256 51.24 275.176 51.14 274.936 51.12L273.596 51V50.24L277.016 49.62L277.696 49.74L277.556 52.14V63.54C277.556 63.74 277.656 63.88 277.876 63.94L279.096 64.26V65H275.916L275.716 64.8ZM286.471 58.94L286.511 58.64C286.531 58.42 286.531 58.2 286.531 58C286.531 56.68 286.091 55.78 284.931 55.78C283.851 55.78 282.971 56.7 282.811 59.2L286.471 58.94ZM288.831 62.98C287.971 64.24 286.871 65.26 284.871 65.26C282.591 65.26 280.251 63.54 280.251 60.16C280.251 56.66 282.711 55 284.951 55C287.411 55 288.791 56.52 288.791 58.74C288.791 59.16 288.731 59.6 288.671 59.94H282.771V60.16C282.771 62.72 283.831 64.12 285.451 64.12C286.611 64.12 287.491 63.54 288.271 62.58L288.831 62.98ZM296.128 65H290.668V64.26L291.828 63.94C292.048 63.88 292.148 63.74 292.148 63.54V56.92C292.148 56.7 292.068 56.6 291.808 56.58L290.408 56.46V55.78L293.548 55.02L294.188 55.16L294.008 58.76C294.308 56.78 295.168 55 296.928 55C298.028 55 298.648 55.66 298.648 56.6C298.648 57.46 298.028 58.06 297.248 58.06C296.468 58.06 295.928 57.5 295.928 56.74C295.928 56.34 296.068 56.04 296.328 55.86C294.948 56.34 294.388 58.72 294.388 60.58V63.5C294.388 63.76 294.488 63.9 294.768 63.96L296.128 64.26V65ZM303.504 64.22C304.544 64.22 305.424 63.34 305.424 62.1C305.424 61.5 305.424 60.76 305.424 60C303.584 60.34 302.184 60.86 302.184 62.78C302.184 63.66 302.644 64.22 303.504 64.22ZM309.784 62.58C309.604 64.34 309.064 65.16 307.704 65.16C306.744 65.16 306.044 64.74 305.804 63.64C305.184 64.66 303.944 65.28 302.624 65.28C300.864 65.28 299.844 64.4 299.844 62.96C299.844 60.42 302.924 59.58 305.444 59.26C305.444 58.7 305.444 58.16 305.444 57.68C305.444 56.38 304.904 55.78 303.704 55.78C302.884 55.78 302.224 56.08 301.824 56.5C302.444 56.54 302.824 57 302.824 57.66C302.824 58.4 302.284 58.86 301.544 58.86C300.784 58.86 300.264 58.34 300.264 57.46C300.264 56.12 301.804 55 303.904 55C306.324 55 307.684 56.04 307.684 58.3C307.684 59.72 307.644 61.62 307.644 63.04C307.644 63.88 307.864 64.14 308.284 64.14C308.784 64.14 309.004 63.66 309.164 62.54L309.784 62.58ZM314.349 65.26C312.769 65.26 311.709 64.48 311.709 62.64V56.38L309.809 56.18V55.44L311.309 55.16C312.049 55.04 312.389 54.66 312.569 54L313.029 52.26H314.129L314.009 55.28H317.169V56.1L314.009 56.3V62.7C314.009 63.6 314.389 64.06 315.109 64.06C315.849 64.06 316.249 63.54 316.569 62.38L317.249 62.56C316.889 64.38 315.949 65.26 314.349 65.26ZM327.683 64.24V65H322.563V64.26L323.723 63.94C323.943 63.88 324.043 63.74 324.043 63.54V56.94C324.043 56.72 323.963 56.62 323.703 56.6L322.303 56.48V55.8L325.483 55.04L326.143 55.18L325.963 58.02C326.443 56.2 327.643 55 329.483 55C331.243 55 332.043 56.08 332.043 57.84C332.543 56.1 333.723 55 335.503 55C337.383 55 338.363 56.06 338.363 58.04V63.54C338.363 63.74 338.443 63.88 338.663 63.94L339.843 64.26V65H334.703V64.24L335.763 63.94C336.003 63.88 336.083 63.74 336.083 63.54V57.84C336.083 56.58 335.543 56.12 334.663 56.12C333.503 56.12 332.343 57.52 332.343 59.98V63.54C332.343 63.74 332.443 63.88 332.663 63.94L333.703 64.24V65H328.683V64.24L329.763 63.94C330.003 63.88 330.063 63.74 330.063 63.54V57.84C330.063 56.58 329.543 56.12 328.663 56.12C327.503 56.12 326.323 57.58 326.323 59.98V63.54C326.323 63.74 326.383 63.88 326.623 63.94L327.683 64.24ZM344.852 64.22C345.892 64.22 346.772 63.34 346.772 62.1C346.772 61.5 346.772 60.76 346.772 60C344.932 60.34 343.532 60.86 343.532 62.78C343.532 63.66 343.992 64.22 344.852 64.22ZM351.132 62.58C350.952 64.34 350.412 65.16 349.052 65.16C348.092 65.16 347.392 64.74 347.152 63.64C346.532 64.66 345.292 65.28 343.972 65.28C342.212 65.28 341.192 64.4 341.192 62.96C341.192 60.42 344.272 59.58 346.792 59.26C346.792 58.7 346.792 58.16 346.792 57.68C346.792 56.38 346.252 55.78 345.052 55.78C344.232 55.78 343.572 56.08 343.172 56.5C343.792 56.54 344.172 57 344.172 57.66C344.172 58.4 343.632 58.86 342.892 58.86C342.132 58.86 341.612 58.34 341.612 57.46C341.612 56.12 343.152 55 345.252 55C347.672 55 349.032 56.04 349.032 58.3C349.032 59.72 348.992 61.62 348.992 63.04C348.992 63.88 349.212 64.14 349.632 64.14C350.132 64.14 350.352 63.66 350.512 62.54L351.132 62.58ZM351.557 65V64.26L352.777 63.94C352.997 63.88 353.097 63.74 353.097 63.54V51.44C353.097 51.22 352.997 51.12 352.757 51.1L351.617 50.96V50.2L354.857 49.62L355.537 49.74L355.377 52.14V63.54C355.377 63.74 355.457 63.88 355.697 63.94L356.917 64.26V65H351.557ZM365.5 64.8L365.42 62.66C364.96 64.26 363.84 65.28 362.04 65.28C360.38 65.28 359.2 64.3 359.2 62.14V56.76C359.2 56.52 359.14 56.4 358.9 56.34L357.64 56.04V55.28H361.6L361.52 56.98V62.3C361.52 63.8 362.06 64.14 362.94 64.14C364.04 64.14 365.06 62.98 365.06 60.62V56.76C365.06 56.52 365 56.4 364.76 56.34L363.52 56.04V55.28H367.44L367.36 57.06V63.52C367.36 63.78 367.44 63.88 367.66 63.94L368.82 64.26V65H365.72L365.5 64.8ZM375.28 64.24V65H370.16V64.26L371.32 63.94C371.54 63.88 371.64 63.74 371.64 63.54V56.94C371.64 56.72 371.56 56.62 371.3 56.6L369.9 56.48V55.8L373.08 55.04L373.74 55.18L373.56 58.02C374.04 56.2 375.24 55 377.08 55C378.84 55 379.64 56.08 379.64 57.84C380.14 56.1 381.32 55 383.1 55C384.98 55 385.96 56.06 385.96 58.04V63.54C385.96 63.74 386.04 63.88 386.26 63.94L387.44 64.26V65H382.3V64.24L383.36 63.94C383.6 63.88 383.68 63.74 383.68 63.54V57.84C383.68 56.58 383.14 56.12 382.26 56.12C381.1 56.12 379.94 57.52 379.94 59.98V63.54C379.94 63.74 380.04 63.88 380.26 63.94L381.3 64.24V65H376.28V64.24L377.36 63.94C377.6 63.88 377.66 63.74 377.66 63.54V57.84C377.66 56.58 377.14 56.12 376.26 56.12C375.1 56.12 373.92 57.58 373.92 59.98V63.54C373.92 63.74 373.98 63.88 374.22 63.94L375.28 64.24Z" fill="#1D1D1B"/>
<g clip-path="url(#clip0_0_1721)">
<path d="M26.61 0.5V29.52H19.89V17.62H6.72V29.52H0V0.5H6.72V11.94H19.9V0.5H26.62H26.61Z" fill="#1D1D1B"/>
<path d="M42.3501 28.06C39.9301 26.76 38.0401 24.97 36.6701 22.69C35.3001 20.41 34.6201 17.85 34.6201 15C34.6201 12.15 35.3001 9.58999 36.6701 7.30999C38.0401 5.02999 39.9301 3.23999 42.3501 1.93999C44.7701 0.63999 47.4801 -0.0100098 50.5001 -0.0100098C53.5201 -0.0100098 56.2201 0.63999 58.6201 1.93999C61.0201 3.23999 62.9201 5.02999 64.3001 7.30999C65.6801 9.58999 66.3701 12.15 66.3701 15C66.3701 17.85 65.6801 20.41 64.3001 22.69C62.9201 24.97 61.0301 26.76 58.6201 28.06C56.2201 29.36 53.5101 30.01 50.5001 30.01C47.4901 30.01 44.7701 29.36 42.3501 28.06ZM55.1401 23.11C56.5201 22.32 57.6101 21.22 58.3901 19.81C59.1801 18.4 59.5701 16.8 59.5701 15C59.5701 13.2 59.1801 11.6 58.3901 10.19C57.6001 8.77999 56.5201 7.67999 55.1401 6.88999C53.7601 6.09999 52.2101 5.70999 50.5001 5.70999C48.7901 5.70999 47.2401 6.09999 45.8601 6.88999C44.4801 7.67999 43.3901 8.77999 42.6101 10.19C41.8201 11.6 41.4301 13.2 41.4301 15C41.4301 16.8 41.8201 18.4 42.6101 19.81C43.4001 21.22 44.4801 22.32 45.8601 23.11C47.2401 23.9 48.7901 24.29 50.5001 24.29C52.2101 24.29 53.7601 23.9 55.1401 23.11Z" fill="#1D1D1B"/>
<path d="M92.8599 29.52L87.2599 21.44H81.0799V29.52H74.3599V0.5H86.9199C89.4899 0.5 91.7199 0.93 93.6099 1.79C95.4999 2.65 96.9599 3.86 97.9799 5.44C98.9999 7.02 99.5099 8.88 99.5099 11.04C99.5099 13.2 98.9899 15.05 97.9599 16.62C96.9199 18.18 95.4499 19.38 93.5399 20.21L100.05 29.54H92.8399L92.8599 29.52ZM91.1599 7.28C90.1099 6.41 88.5799 5.97 86.5599 5.97H81.0899V16.08H86.5599C88.5799 16.08 90.1099 15.64 91.1599 14.75C92.2099 13.87 92.7399 12.62 92.7399 11.02C92.7399 9.42 92.2199 8.14 91.1599 7.27V7.28Z" fill="#1D1D1B"/>
<path d="M113.23 29.08C111.09 28.46 109.37 27.65 108.07 26.65L110.35 21.59C111.59 22.5 113.07 23.24 114.79 23.79C116.5 24.34 118.22 24.62 119.93 24.62C121.84 24.62 123.25 24.34 124.16 23.77C125.07 23.2 125.53 22.45 125.53 21.51C125.53 20.82 125.26 20.25 124.72 19.79C124.18 19.33 123.49 18.97 122.65 18.69C121.81 18.41 120.67 18.11 119.23 17.78C117.02 17.26 115.21 16.73 113.8 16.2C112.39 15.68 111.18 14.83 110.17 13.67C109.16 12.51 108.66 10.96 108.66 9.03C108.66 7.34 109.12 5.82 110.03 4.45C110.94 3.08 112.32 2 114.15 1.2C115.99 0.4 118.23 0 120.89 0C122.74 0 124.55 0.22 126.32 0.66C128.09 1.1 129.64 1.74 130.96 2.57L128.89 7.67C126.21 6.15 123.53 5.39 120.85 5.39C118.97 5.39 117.58 5.69 116.68 6.3C115.78 6.91 115.33 7.71 115.33 8.7C115.33 9.69 115.85 10.43 116.88 10.92C117.92 11.4 119.5 11.88 121.63 12.35C123.84 12.88 125.65 13.4 127.06 13.93C128.47 14.46 129.68 15.28 130.69 16.42C131.7 17.55 132.2 19.09 132.2 21.02C132.2 22.68 131.74 24.19 130.81 25.56C129.88 26.93 128.5 28.01 126.64 28.81C124.78 29.61 122.54 30.01 119.88 30.01C117.59 30.01 115.37 29.7 113.23 29.08Z" fill="#1D1D1B"/>
<path d="M162.77 24.13V29.52H140.3V0.5H162.23V5.89H146.97V12.19H160.44V17.41H146.97V24.13H162.76H162.77Z" fill="#1D1D1B"/>
<path d="M200.21 29.52L200.17 4.69L188.02 25.67H186.98L174.83 4.78V29.53H172.76V0.5H174.54L187.52 22.93L200.5 0.5H202.24L202.28 29.52H200.21Z" fill="#1D1D1B"/>
<path d="M234.09 21.35H217.26L213.57 29.52H211.29L224.64 0.5H226.75L240.1 29.52H237.82L234.09 21.35ZM233.3 19.57L225.67 2.82L218.08 19.57H233.29H233.3Z" fill="#1D1D1B"/>
<path d="M272.73 0.5V29.52H270.99L251.22 4.32V29.52H249.11V0.5H250.89L270.62 25.7V0.5H272.73Z" fill="#1D1D1B"/>
</g>
<defs>
<clipPath id="clip0_0_1721">
<rect width="272.73" height="30.01" fill="white"/>
</clipPath>
</defs>
</svg>
