<svg width="273" height="30" viewBox="0 0 273 30" fill="none" xmlns="http://www.w3.org/2000/svg">
<g clip-path="url(#clip0_0_1723)">
<path d="M26.61 0.5V29.52H19.89V17.62H6.72V29.52H0V0.5H6.72V11.94H19.9V0.5H26.62H26.61Z" fill="#1D1D1B"/>
<path d="M42.3501 28.06C39.9301 26.76 38.0401 24.97 36.6701 22.69C35.3001 20.41 34.6201 17.85 34.6201 15C34.6201 12.15 35.3001 9.58999 36.6701 7.30999C38.0401 5.02999 39.9301 3.23999 42.3501 1.93999C44.7701 0.63999 47.4801 -0.0100098 50.5001 -0.0100098C53.5201 -0.0100098 56.2201 0.63999 58.6201 1.93999C61.0201 3.23999 62.9201 5.02999 64.3001 7.30999C65.6801 9.58999 66.3701 12.15 66.3701 15C66.3701 17.85 65.6801 20.41 64.3001 22.69C62.9201 24.97 61.0301 26.76 58.6201 28.06C56.2201 29.36 53.5101 30.01 50.5001 30.01C47.4901 30.01 44.7701 29.36 42.3501 28.06ZM55.1401 23.11C56.5201 22.32 57.6101 21.22 58.3901 19.81C59.1801 18.4 59.5701 16.8 59.5701 15C59.5701 13.2 59.1801 11.6 58.3901 10.19C57.6001 8.77999 56.5201 7.67999 55.1401 6.88999C53.7601 6.09999 52.2101 5.70999 50.5001 5.70999C48.7901 5.70999 47.2401 6.09999 45.8601 6.88999C44.4801 7.67999 43.3901 8.77999 42.6101 10.19C41.8201 11.6 41.4301 13.2 41.4301 15C41.4301 16.8 41.8201 18.4 42.6101 19.81C43.4001 21.22 44.4801 22.32 45.8601 23.11C47.2401 23.9 48.7901 24.29 50.5001 24.29C52.2101 24.29 53.7601 23.9 55.1401 23.11Z" fill="#1D1D1B"/>
<path d="M92.8599 29.52L87.2599 21.44H81.0799V29.52H74.3599V0.5H86.9199C89.4899 0.5 91.7199 0.93 93.6099 1.79C95.4999 2.65 96.9599 3.86 97.9799 5.44C98.9999 7.02 99.5099 8.88 99.5099 11.04C99.5099 13.2 98.9899 15.05 97.9599 16.62C96.9199 18.18 95.4499 19.38 93.5399 20.21L100.05 29.54H92.8399L92.8599 29.52ZM91.1599 7.28C90.1099 6.41 88.5799 5.97 86.5599 5.97H81.0899V16.08H86.5599C88.5799 16.08 90.1099 15.64 91.1599 14.75C92.2099 13.87 92.7399 12.62 92.7399 11.02C92.7399 9.42 92.2199 8.14 91.1599 7.27V7.28Z" fill="#1D1D1B"/>
<path d="M113.23 29.08C111.09 28.46 109.37 27.65 108.07 26.65L110.35 21.59C111.59 22.5 113.07 23.24 114.79 23.79C116.5 24.34 118.22 24.62 119.93 24.62C121.84 24.62 123.25 24.34 124.16 23.77C125.07 23.2 125.53 22.45 125.53 21.51C125.53 20.82 125.26 20.25 124.72 19.79C124.18 19.33 123.49 18.97 122.65 18.69C121.81 18.41 120.67 18.11 119.23 17.78C117.02 17.26 115.21 16.73 113.8 16.2C112.39 15.68 111.18 14.83 110.17 13.67C109.16 12.51 108.66 10.96 108.66 9.03C108.66 7.34 109.12 5.82 110.03 4.45C110.94 3.08 112.32 2 114.15 1.2C115.99 0.4 118.23 0 120.89 0C122.74 0 124.55 0.22 126.32 0.66C128.09 1.1 129.64 1.74 130.96 2.57L128.89 7.67C126.21 6.15 123.53 5.39 120.85 5.39C118.97 5.39 117.58 5.69 116.68 6.3C115.78 6.91 115.33 7.71 115.33 8.7C115.33 9.69 115.85 10.43 116.88 10.92C117.92 11.4 119.5 11.88 121.63 12.35C123.84 12.88 125.65 13.4 127.06 13.93C128.47 14.46 129.68 15.28 130.69 16.42C131.7 17.55 132.2 19.09 132.2 21.02C132.2 22.68 131.74 24.19 130.81 25.56C129.88 26.93 128.5 28.01 126.64 28.81C124.78 29.61 122.54 30.01 119.88 30.01C117.59 30.01 115.37 29.7 113.23 29.08Z" fill="#1D1D1B"/>
<path d="M162.77 24.13V29.52H140.3V0.5H162.23V5.89H146.97V12.19H160.44V17.41H146.97V24.13H162.76H162.77Z" fill="#1D1D1B"/>
<path d="M200.21 29.52L200.17 4.69L188.02 25.67H186.98L174.83 4.78V29.53H172.76V0.5H174.54L187.52 22.93L200.5 0.5H202.24L202.28 29.52H200.21Z" fill="#1D1D1B"/>
<path d="M234.09 21.35H217.26L213.57 29.52H211.29L224.64 0.5H226.75L240.1 29.52H237.82L234.09 21.35ZM233.3 19.57L225.67 2.82L218.08 19.57H233.29H233.3Z" fill="#1D1D1B"/>
<path d="M272.73 0.5V29.52H270.99L251.22 4.32V29.52H249.11V0.5H250.89L270.62 25.7V0.5H272.73Z" fill="#1D1D1B"/>
</g>
<defs>
<clipPath id="clip0_0_1723">
<rect width="272.73" height="30.01" fill="white"/>
</clipPath>
</defs>
</svg>
