<svg width="311" height="53" viewBox="0 0 311 53" fill="none" xmlns="http://www.w3.org/2000/svg">
<path d="M0.72 49V48.328L1.952 48.072C2.192 48.024 2.272 47.928 2.272 47.736V39.384C2.272 39.208 2.192 39.112 1.952 39.064L0.72 38.808V38.136H5.648C9.408 38.136 11.504 40.184 11.504 43.576C11.504 46.968 9.392 49 5.632 49H0.72ZM5.152 48.296H5.936C8.032 48.296 9.152 47.096 9.152 43.576C9.152 40.056 8.048 38.84 5.888 38.84H5.52C5.104 38.84 4.64 38.856 4.368 38.872V47.656C4.368 48.168 4.496 48.296 5.152 48.296ZM18.6191 48.84L18.5551 47.128C18.1871 48.408 17.2911 49.224 15.8511 49.224C14.5231 49.224 13.5791 48.44 13.5791 46.712V42.408C13.5791 42.216 13.5311 42.12 13.3391 42.072L12.3311 41.832V41.224H15.4991L15.4351 42.584V46.84C15.4351 48.04 15.8671 48.312 16.5711 48.312C17.4511 48.312 18.2671 47.384 18.2671 45.496V42.408C18.2671 42.216 18.2191 42.12 18.0271 42.072L17.0351 41.832V41.224H20.1711L20.1071 42.648V47.816C20.1071 48.024 20.1711 48.104 20.3471 48.152L21.2751 48.408V49H18.7951L18.6191 48.84ZM26.7793 48.616C27.9633 48.616 28.6033 47.48 28.6033 45.064C28.6033 43.08 28.2833 41.8 27.0033 41.8C26.0273 41.8 25.0833 42.84 25.0833 44.664V47.4C25.3713 48.216 25.9473 48.616 26.7793 48.616ZM26.4913 52.088V52.68H22.0273V52.088L23.0033 51.832C23.1793 51.784 23.2433 51.672 23.2433 51.512V42.552C23.2433 42.376 23.1953 42.296 22.9873 42.28L21.8193 42.184V41.656L24.4113 41.032L24.9393 41.144L24.7953 43.048C25.1633 41.8 26.0273 41.016 27.3233 41.016C29.1313 41.016 30.6193 42.568 30.6193 45.064C30.6193 47.8 28.6993 49.24 26.8753 49.24C26.2513 49.24 25.6113 49.112 25.0833 48.824V51.512C25.0833 51.672 25.1473 51.784 25.3393 51.832L26.4913 52.088ZM31.6671 49V48.408L32.6431 48.152C32.8191 48.104 32.8991 47.992 32.8991 47.832V38.152C32.8991 37.976 32.8191 37.896 32.6271 37.88L31.7151 37.768V37.16L34.3071 36.696L34.8511 36.792L34.7231 38.712V47.832C34.7231 47.992 34.7871 48.104 34.9791 48.152L35.9551 48.408V49H31.6671ZM41.8798 44.152L41.9118 43.912C41.9278 43.736 41.9278 43.56 41.9278 43.4C41.9278 42.344 41.5758 41.624 40.6478 41.624C39.7838 41.624 39.0798 42.36 38.9518 44.36L41.8798 44.152ZM43.7678 47.384C43.0798 48.392 42.1998 49.208 40.5998 49.208C38.7758 49.208 36.9038 47.832 36.9038 45.128C36.9038 42.328 38.8718 41 40.6638 41C42.6318 41 43.7358 42.216 43.7358 43.992C43.7358 44.328 43.6878 44.68 43.6398 44.952H38.9198V45.128C38.9198 47.176 39.7678 48.296 41.0638 48.296C41.9918 48.296 42.6958 47.832 43.3198 47.064L43.7678 47.384ZM47.61 48.408V49H44.41V48.424L45.37 48.184C45.674 48.104 45.834 48.008 45.994 47.768L47.898 45.112L46.186 42.392C46.042 42.152 45.946 42.072 45.69 42.024L44.762 41.8V41.224H49.018V41.8L48.474 41.928C48.17 42.008 48.154 42.136 48.314 42.424L49.322 44.168L50.49 42.44C50.65 42.2 50.65 42.04 50.394 41.96L49.85 41.816V41.224H52.794V41.8L51.914 42.04C51.642 42.12 51.482 42.232 51.306 42.472L49.658 44.728L51.626 47.832C51.77 48.024 51.866 48.136 52.074 48.168L53.05 48.424V49H48.602V48.424L49.29 48.264C49.61 48.2 49.61 48.056 49.45 47.768L48.25 45.688L46.81 47.8C46.666 48.008 46.682 48.168 46.922 48.216L47.61 48.408ZM62.1516 52.68H57.7036V52.088L58.8396 51.832C59.0316 51.784 59.0956 51.672 59.0956 51.512V50.248L59.3036 47.448C58.9036 48.552 58.0716 49.24 56.8556 49.24C55.2556 49.24 53.5756 47.944 53.5756 45.144C53.5756 42.408 55.4316 41.016 57.3676 41.016C58.3276 41.016 59.2876 41.336 59.9116 41.976L60.5356 40.872L61.0956 40.92L60.9356 43.352V51.512C60.9356 51.672 61.0156 51.784 61.1916 51.832L62.1516 52.088V52.68ZM57.2876 48.472C58.2316 48.472 59.0956 47.368 59.0956 45.592V42.888C58.7756 42.056 58.1836 41.64 57.4476 41.64C56.1996 41.64 55.5916 42.728 55.5916 45.112C55.5916 47.384 56.1356 48.472 57.2876 48.472ZM68.6504 48.84L68.5864 47.128C68.2184 48.408 67.3224 49.224 65.8824 49.224C64.5544 49.224 63.6104 48.44 63.6104 46.712V42.408C63.6104 42.216 63.5624 42.12 63.3704 42.072L62.3624 41.832V41.224H65.5304L65.4664 42.584V46.84C65.4664 48.04 65.8984 48.312 66.6024 48.312C67.4824 48.312 68.2984 47.384 68.2984 45.496V42.408C68.2984 42.216 68.2504 42.12 68.0584 42.072L67.0664 41.832V41.224H70.2024L70.1384 42.648V47.816C70.1384 48.024 70.2024 48.104 70.3784 48.152L71.3064 48.408V49H68.8264L68.6504 48.84ZM77.1141 44.152L77.1461 43.912C77.1621 43.736 77.1621 43.56 77.1621 43.4C77.1621 42.344 76.8101 41.624 75.8821 41.624C75.0181 41.624 74.3141 42.36 74.1861 44.36L77.1141 44.152ZM79.0021 47.384C78.3141 48.392 77.4341 49.208 75.8341 49.208C74.0101 49.208 72.1381 47.832 72.1381 45.128C72.1381 42.328 74.1061 41 75.8981 41C77.8661 41 78.9701 42.216 78.9701 43.992C78.9701 44.328 78.9221 44.68 78.8741 44.952H74.1541V45.128C74.1541 47.176 75.0021 48.296 76.2981 48.296C77.2261 48.296 77.9301 47.832 78.5541 47.064L79.0021 47.384ZM85.611 39.432C84.923 39.432 84.363 38.936 84.363 38.2C84.363 37.448 84.923 36.984 85.611 36.984C86.347 36.984 86.875 37.448 86.875 38.2C86.875 38.968 86.347 39.432 85.611 39.432ZM83.675 49V48.408L84.635 48.152C84.811 48.104 84.891 47.992 84.891 47.832V42.584C84.891 42.408 84.843 42.328 84.619 42.312L83.467 42.216V41.672L86.283 41.016L86.843 41.128L86.731 43V47.832C86.731 47.992 86.795 48.104 86.971 48.152L87.947 48.408V49H83.675ZM94.9815 46.824C94.9815 48.344 93.8295 49.224 92.1655 49.224C91.2535 49.224 90.5335 49 90.0055 48.568L89.7815 49.224H89.2375L89.2535 46.184H89.9255C89.9415 46.264 90.3255 47.32 90.3575 47.4C90.6295 48.12 91.2375 48.6 92.1335 48.6C93.0295 48.6 93.5895 48.2 93.5895 47.448C93.5895 46.552 92.8375 46.264 91.6375 45.816C90.4535 45.4 89.4135 44.808 89.4135 43.304C89.4135 42.008 90.4855 41 92.0695 41C92.8695 41 93.4935 41.208 93.9575 41.608L94.1815 41H94.6935V43.816H94.0215C94.0055 43.736 93.6855 42.792 93.6535 42.728C93.4135 42.056 92.9175 41.624 92.1335 41.624C91.2695 41.624 90.8055 42.12 90.8055 42.712C90.8055 43.592 91.5415 43.832 92.7095 44.248C93.8455 44.648 94.9815 45.304 94.9815 46.824ZM100.085 48.456C101.109 48.456 101.861 47.352 101.861 45.432V42.936C101.541 42.008 100.933 41.624 100.197 41.624C99.0293 41.624 98.3413 42.696 98.3413 45.112C98.3413 47.4 98.9333 48.456 100.085 48.456ZM102.229 48.84L102.181 47.032C101.813 48.456 100.885 49.208 99.6533 49.208C98.0373 49.208 96.3413 47.896 96.3413 45.128C96.3413 42.536 98.1493 41 100.117 41C100.709 41 101.333 41.144 101.861 41.432V38.184C101.861 37.992 101.797 37.912 101.605 37.896L100.533 37.8V37.192L103.269 36.696L103.813 36.792L103.701 38.712V47.832C103.701 47.992 103.781 48.104 103.957 48.152L104.933 48.408V49H102.389L102.229 48.84ZM110.833 44.152L110.865 43.912C110.881 43.736 110.881 43.56 110.881 43.4C110.881 42.344 110.529 41.624 109.601 41.624C108.737 41.624 108.033 42.36 107.905 44.36L110.833 44.152ZM112.721 47.384C112.033 48.392 111.153 49.208 109.553 49.208C107.729 49.208 105.857 47.832 105.857 45.128C105.857 42.328 107.825 41 109.617 41C111.585 41 112.689 42.216 112.689 43.992C112.689 44.328 112.641 44.68 112.593 44.952H107.873V45.128C107.873 47.176 108.721 48.296 110.017 48.296C110.945 48.296 111.649 47.832 112.273 47.064L112.721 47.384ZM118.287 48.392V49H114.191V48.408L115.119 48.152C115.295 48.104 115.375 47.992 115.375 47.832V42.552C115.375 42.376 115.311 42.296 115.103 42.28L113.983 42.184V41.64L116.527 41.032L117.055 41.144L116.911 43.416C117.295 41.96 118.255 41 119.727 41C121.135 41 121.775 41.864 121.775 43.272C122.175 41.88 123.119 41 124.543 41C126.047 41 126.831 41.848 126.831 43.432V47.832C126.831 47.992 126.895 48.104 127.071 48.152L128.015 48.408V49H123.903V48.392L124.751 48.152C124.943 48.104 125.007 47.992 125.007 47.832V43.272C125.007 42.264 124.575 41.896 123.871 41.896C122.943 41.896 122.015 43.016 122.015 44.984V47.832C122.015 47.992 122.095 48.104 122.271 48.152L123.103 48.392V49H119.087V48.392L119.951 48.152C120.143 48.104 120.191 47.992 120.191 47.832V43.272C120.191 42.264 119.775 41.896 119.071 41.896C118.143 41.896 117.199 43.064 117.199 44.984V47.832C117.199 47.992 117.247 48.104 117.439 48.152L118.287 48.392ZM135.913 48.456C136.937 48.456 137.689 47.352 137.689 45.432V42.936C137.369 42.008 136.761 41.624 136.025 41.624C134.857 41.624 134.169 42.696 134.169 45.112C134.169 47.4 134.761 48.456 135.913 48.456ZM138.057 48.84L138.009 47.032C137.641 48.456 136.713 49.208 135.481 49.208C133.865 49.208 132.169 47.896 132.169 45.128C132.169 42.536 133.977 41 135.945 41C136.537 41 137.161 41.144 137.689 41.432V38.184C137.689 37.992 137.625 37.912 137.433 37.896L136.361 37.8V37.192L139.097 36.696L139.641 36.792L139.529 38.712V47.832C139.529 47.992 139.609 48.104 139.785 48.152L140.761 48.408V49H138.217L138.057 48.84ZM143.908 39.432C143.22 39.432 142.66 38.936 142.66 38.2C142.66 37.448 143.22 36.984 143.908 36.984C144.644 36.984 145.172 37.448 145.172 38.2C145.172 38.968 144.644 39.432 143.908 39.432ZM141.972 49V48.408L142.932 48.152C143.108 48.104 143.188 47.992 143.188 47.832V42.584C143.188 42.408 143.14 42.328 142.916 42.312L141.764 42.216V41.672L144.58 41.016L145.14 41.128L145.028 43V47.832C145.028 47.992 145.092 48.104 145.268 48.152L146.244 48.408V49H141.972ZM152.224 44.152L152.256 43.912C152.272 43.736 152.272 43.56 152.272 43.4C152.272 42.344 151.92 41.624 150.992 41.624C150.128 41.624 149.424 42.36 149.296 44.36L152.224 44.152ZM154.112 47.384C153.424 48.392 152.544 49.208 150.944 49.208C149.12 49.208 147.248 47.832 147.248 45.128C147.248 42.328 149.216 41 151.008 41C152.976 41 154.08 42.216 154.08 43.992C154.08 44.328 154.032 44.68 153.984 44.952H149.264V45.128C149.264 47.176 150.112 48.296 151.408 48.296C152.336 48.296 153.04 47.832 153.664 47.064L154.112 47.384ZM163.47 45.016C163.47 47.56 161.822 49.224 159.614 49.224C158.638 49.224 157.71 48.936 157.086 48.328L156.542 49.176L155.902 49.128L156.094 46.856V38.152C156.094 37.976 156.014 37.896 155.838 37.88L154.91 37.768V37.16L157.502 36.696L158.046 36.792L157.934 38.712V39.944L157.726 42.712C158.126 41.624 158.942 41 160.158 41C162.078 41 163.47 42.68 163.47 45.016ZM159.518 48.616C161.006 48.616 161.438 47.176 161.438 45.048C161.438 43.144 161.102 41.784 159.822 41.784C158.702 41.784 157.934 42.856 157.934 44.68V47.704C158.254 48.328 158.846 48.616 159.518 48.616ZM170.494 48.84L170.43 47.128C170.062 48.408 169.166 49.224 167.726 49.224C166.398 49.224 165.454 48.44 165.454 46.712V42.408C165.454 42.216 165.406 42.12 165.214 42.072L164.206 41.832V41.224H167.374L167.31 42.584V46.84C167.31 48.04 167.742 48.312 168.446 48.312C169.326 48.312 170.142 47.384 170.142 45.496V42.408C170.142 42.216 170.094 42.12 169.902 42.072L168.91 41.832V41.224H172.046L171.982 42.648V47.816C171.982 48.024 172.046 48.104 172.222 48.152L173.15 48.408V49H170.67L170.494 48.84ZM179.935 46.824C179.935 48.344 178.783 49.224 177.119 49.224C176.207 49.224 175.487 49 174.959 48.568L174.735 49.224H174.191L174.207 46.184H174.879C174.895 46.264 175.279 47.32 175.311 47.4C175.583 48.12 176.191 48.6 177.087 48.6C177.983 48.6 178.543 48.2 178.543 47.448C178.543 46.552 177.791 46.264 176.591 45.816C175.407 45.4 174.367 44.808 174.367 43.304C174.367 42.008 175.439 41 177.023 41C177.823 41 178.447 41.208 178.911 41.608L179.135 41H179.647V43.816H178.975C178.959 43.736 178.639 42.792 178.607 42.728C178.367 42.056 177.871 41.624 177.087 41.624C176.223 41.624 175.759 42.12 175.759 42.712C175.759 43.592 176.495 43.832 177.663 44.248C178.799 44.648 179.935 45.304 179.935 46.824ZM187.538 48.376C188.37 48.376 189.074 47.672 189.074 46.68C189.074 46.2 189.074 45.608 189.074 45C187.602 45.272 186.482 45.688 186.482 47.224C186.482 47.928 186.85 48.376 187.538 48.376ZM192.562 47.064C192.418 48.472 191.986 49.128 190.898 49.128C190.13 49.128 189.57 48.792 189.378 47.912C188.882 48.728 187.89 49.224 186.834 49.224C185.426 49.224 184.61 48.52 184.61 47.368C184.61 45.336 187.074 44.664 189.09 44.408C189.09 43.96 189.09 43.528 189.09 43.144C189.09 42.104 188.658 41.624 187.698 41.624C187.042 41.624 186.514 41.864 186.194 42.2C186.69 42.232 186.994 42.6 186.994 43.128C186.994 43.72 186.562 44.088 185.97 44.088C185.362 44.088 184.946 43.672 184.946 42.968C184.946 41.896 186.178 41 187.858 41C189.794 41 190.882 41.832 190.882 43.64C190.882 44.776 190.85 46.296 190.85 47.432C190.85 48.104 191.026 48.312 191.362 48.312C191.762 48.312 191.938 47.928 192.066 47.032L192.562 47.064ZM200.115 47.272C199.411 48.376 198.451 49.208 196.803 49.208C194.931 49.208 193.123 47.8 193.123 45.144C193.123 42.424 195.011 41 197.107 41C198.675 41 199.875 41.8 199.875 43C199.875 43.768 199.331 44.168 198.755 44.168C198.163 44.168 197.683 43.752 197.683 43.16C197.683 42.568 198.083 42.168 198.515 42.184C198.243 41.832 197.795 41.624 197.219 41.624C195.939 41.624 195.139 42.712 195.139 45C195.139 47.112 195.891 48.296 197.299 48.296C198.307 48.296 199.011 47.768 199.651 46.952L200.115 47.272ZM208.099 47.272C207.395 48.376 206.435 49.208 204.787 49.208C202.915 49.208 201.107 47.8 201.107 45.144C201.107 42.424 202.995 41 205.091 41C206.659 41 207.859 41.8 207.859 43C207.859 43.768 207.315 44.168 206.739 44.168C206.147 44.168 205.667 43.752 205.667 43.16C205.667 42.568 206.067 42.168 206.499 42.184C206.227 41.832 205.779 41.624 205.203 41.624C203.923 41.624 203.123 42.712 203.123 45C203.123 47.112 203.875 48.296 205.283 48.296C206.291 48.296 206.995 47.768 207.635 46.952L208.099 47.272ZM211.345 39.432C210.657 39.432 210.097 38.936 210.097 38.2C210.097 37.448 210.657 36.984 211.345 36.984C212.081 36.984 212.609 37.448 212.609 38.2C212.609 38.968 212.081 39.432 211.345 39.432ZM209.409 49V48.408L210.369 48.152C210.545 48.104 210.625 47.992 210.625 47.832V42.584C210.625 42.408 210.577 42.328 210.353 42.312L209.201 42.216V41.672L212.017 41.016L212.577 41.128L212.465 43V47.832C212.465 47.992 212.529 48.104 212.705 48.152L213.681 48.408V49H209.409ZM218.429 48.456C219.453 48.456 220.205 47.352 220.205 45.432V42.936C219.885 42.008 219.277 41.624 218.541 41.624C217.373 41.624 216.685 42.696 216.685 45.112C216.685 47.4 217.277 48.456 218.429 48.456ZM220.573 48.84L220.525 47.032C220.157 48.456 219.229 49.208 217.997 49.208C216.381 49.208 214.685 47.896 214.685 45.128C214.685 42.536 216.493 41 218.461 41C219.053 41 219.677 41.144 220.205 41.432V38.184C220.205 37.992 220.141 37.912 219.949 37.896L218.877 37.8V37.192L221.613 36.696L222.157 36.792L222.045 38.712V47.832C222.045 47.992 222.125 48.104 222.301 48.152L223.277 48.408V49H220.733L220.573 48.84ZM229.177 44.152L229.209 43.912C229.225 43.736 229.225 43.56 229.225 43.4C229.225 42.344 228.873 41.624 227.945 41.624C227.081 41.624 226.377 42.36 226.249 44.36L229.177 44.152ZM231.065 47.384C230.377 48.392 229.497 49.208 227.897 49.208C226.073 49.208 224.201 47.832 224.201 45.128C224.201 42.328 226.169 41 227.961 41C229.929 41 231.033 42.216 231.033 43.992C231.033 44.328 230.985 44.68 230.937 44.952H226.217V45.128C226.217 47.176 227.065 48.296 228.361 48.296C229.289 48.296 229.993 47.832 230.617 47.064L231.065 47.384ZM236.902 49H232.534V48.408L233.462 48.152C233.638 48.104 233.718 47.992 233.718 47.832V42.536C233.718 42.36 233.654 42.28 233.446 42.264L232.326 42.168V41.624L234.838 41.016L235.35 41.128L235.206 44.008C235.446 42.424 236.134 41 237.542 41C238.422 41 238.918 41.528 238.918 42.28C238.918 42.968 238.422 43.448 237.798 43.448C237.174 43.448 236.742 43 236.742 42.392C236.742 42.072 236.854 41.832 237.062 41.688C235.958 42.072 235.51 43.976 235.51 45.464V47.8C235.51 48.008 235.59 48.12 235.814 48.168L236.902 48.408V49ZM242.804 48.376C243.636 48.376 244.34 47.672 244.34 46.68C244.34 46.2 244.34 45.608 244.34 45C242.868 45.272 241.748 45.688 241.748 47.224C241.748 47.928 242.116 48.376 242.804 48.376ZM247.828 47.064C247.684 48.472 247.252 49.128 246.164 49.128C245.396 49.128 244.836 48.792 244.644 47.912C244.148 48.728 243.156 49.224 242.1 49.224C240.692 49.224 239.876 48.52 239.876 47.368C239.876 45.336 242.34 44.664 244.356 44.408C244.356 43.96 244.356 43.528 244.356 43.144C244.356 42.104 243.924 41.624 242.964 41.624C242.308 41.624 241.78 41.864 241.46 42.2C241.956 42.232 242.26 42.6 242.26 43.128C242.26 43.72 241.828 44.088 241.236 44.088C240.628 44.088 240.212 43.672 240.212 42.968C240.212 41.896 241.444 41 243.124 41C245.06 41 246.148 41.832 246.148 43.64C246.148 44.776 246.116 46.296 246.116 47.432C246.116 48.104 246.292 48.312 246.628 48.312C247.028 48.312 247.204 47.928 247.332 47.032L247.828 47.064ZM251.479 49.208C250.215 49.208 249.367 48.584 249.367 47.112V42.104L247.847 41.944V41.352L249.047 41.128C249.639 41.032 249.911 40.728 250.055 40.2L250.423 38.808H251.303L251.207 41.224H253.735V41.88L251.207 42.04V47.16C251.207 47.88 251.511 48.248 252.087 48.248C252.679 48.248 252.999 47.832 253.255 46.904L253.799 47.048C253.511 48.504 252.759 49.208 251.479 49.208ZM262.146 48.392V49H258.05V48.408L258.978 48.152C259.154 48.104 259.234 47.992 259.234 47.832V42.552C259.234 42.376 259.17 42.296 258.962 42.28L257.842 42.184V41.64L260.386 41.032L260.914 41.144L260.77 43.416C261.154 41.96 262.114 41 263.586 41C264.994 41 265.634 41.864 265.634 43.272C266.034 41.88 266.978 41 268.402 41C269.906 41 270.69 41.848 270.69 43.432V47.832C270.69 47.992 270.754 48.104 270.93 48.152L271.874 48.408V49H267.762V48.392L268.61 48.152C268.802 48.104 268.866 47.992 268.866 47.832V43.272C268.866 42.264 268.434 41.896 267.73 41.896C266.802 41.896 265.874 43.016 265.874 44.984V47.832C265.874 47.992 265.954 48.104 266.13 48.152L266.962 48.392V49H262.946V48.392L263.81 48.152C264.002 48.104 264.05 47.992 264.05 47.832V43.272C264.05 42.264 263.634 41.896 262.93 41.896C262.002 41.896 261.058 43.064 261.058 44.984V47.832C261.058 47.992 261.106 48.104 261.298 48.152L262.146 48.392ZM275.882 48.376C276.714 48.376 277.418 47.672 277.418 46.68C277.418 46.2 277.418 45.608 277.418 45C275.946 45.272 274.826 45.688 274.826 47.224C274.826 47.928 275.194 48.376 275.882 48.376ZM280.906 47.064C280.762 48.472 280.33 49.128 279.242 49.128C278.474 49.128 277.914 48.792 277.722 47.912C277.226 48.728 276.234 49.224 275.178 49.224C273.77 49.224 272.954 48.52 272.954 47.368C272.954 45.336 275.418 44.664 277.434 44.408C277.434 43.96 277.434 43.528 277.434 43.144C277.434 42.104 277.002 41.624 276.042 41.624C275.386 41.624 274.858 41.864 274.538 42.2C275.034 42.232 275.338 42.6 275.338 43.128C275.338 43.72 274.906 44.088 274.314 44.088C273.706 44.088 273.29 43.672 273.29 42.968C273.29 41.896 274.522 41 276.202 41C278.138 41 279.226 41.832 279.226 43.64C279.226 44.776 279.194 46.296 279.194 47.432C279.194 48.104 279.37 48.312 279.706 48.312C280.106 48.312 280.282 47.928 280.41 47.032L280.906 47.064ZM281.245 49V48.408L282.221 48.152C282.397 48.104 282.477 47.992 282.477 47.832V38.152C282.477 37.976 282.397 37.896 282.205 37.88L281.293 37.768V37.16L283.885 36.696L284.429 36.792L284.301 38.712V47.832C284.301 47.992 284.365 48.104 284.557 48.152L285.533 48.408V49H281.245ZM292.4 48.84L292.336 47.128C291.968 48.408 291.072 49.224 289.632 49.224C288.304 49.224 287.36 48.44 287.36 46.712V42.408C287.36 42.216 287.312 42.12 287.12 42.072L286.112 41.832V41.224H289.28L289.216 42.584V46.84C289.216 48.04 289.648 48.312 290.352 48.312C291.232 48.312 292.048 47.384 292.048 45.496V42.408C292.048 42.216 292 42.12 291.808 42.072L290.816 41.832V41.224H293.952L293.888 42.648V47.816C293.888 48.024 293.952 48.104 294.128 48.152L295.056 48.408V49H292.576L292.4 48.84ZM300.224 48.392V49H296.128V48.408L297.056 48.152C297.232 48.104 297.312 47.992 297.312 47.832V42.552C297.312 42.376 297.248 42.296 297.04 42.28L295.92 42.184V41.64L298.464 41.032L298.992 41.144L298.848 43.416C299.232 41.96 300.192 41 301.664 41C303.072 41 303.712 41.864 303.712 43.272C304.112 41.88 305.056 41 306.48 41C307.984 41 308.768 41.848 308.768 43.432V47.832C308.768 47.992 308.832 48.104 309.008 48.152L309.952 48.408V49H305.84V48.392L306.688 48.152C306.88 48.104 306.944 47.992 306.944 47.832V43.272C306.944 42.264 306.512 41.896 305.808 41.896C304.88 41.896 303.952 43.016 303.952 44.984V47.832C303.952 47.992 304.032 48.104 304.208 48.152L305.04 48.392V49H301.024V48.392L301.888 48.152C302.08 48.104 302.128 47.992 302.128 47.832V43.272C302.128 42.264 301.712 41.896 301.008 41.896C300.08 41.896 299.136 43.064 299.136 44.984V47.832C299.136 47.992 299.184 48.104 299.376 48.152L300.224 48.392Z" fill="#1D1D1B"/>
<g clip-path="url(#clip0_0_1207)">
<path d="M22.4652 0.399902V23.6082H17.0444V14.0913H6.42075V23.6082H1V0.399902H6.42075V9.54885H17.0525V0.399902H22.4733H22.4652Z" fill="#1D1D1B"/>
<path d="M35.162 22.4405C33.2099 21.4008 31.6853 19.9693 30.5802 18.1459C29.475 16.3225 28.9265 14.2752 28.9265 11.9959C28.9265 9.7167 29.475 7.66938 30.5802 5.84599C31.6853 4.0226 33.2099 2.59108 35.162 1.55142C37.1141 0.51177 39.3001 -0.00805664 41.7363 -0.00805664C44.1724 -0.00805664 46.3503 0.51177 48.2863 1.55142C50.2223 2.59108 51.755 4.0226 52.8681 5.84599C53.9813 7.66938 54.5379 9.7167 54.5379 11.9959C54.5379 14.2752 53.9813 16.3225 52.8681 18.1459C51.755 19.9693 50.2304 21.4008 48.2863 22.4405C46.3503 23.4801 44.1643 23.9999 41.7363 23.9999C39.3082 23.9999 37.1141 23.4801 35.162 22.4405ZM45.4791 18.4818C46.5923 17.85 47.4716 16.9703 48.1008 15.8427C48.738 14.715 49.0526 13.4355 49.0526 11.9959C49.0526 10.5564 48.738 9.27685 48.1008 8.14922C47.4635 7.0216 46.5923 6.14189 45.4791 5.5101C44.366 4.87831 43.1156 4.56642 41.7363 4.56642C40.3569 4.56642 39.1065 4.87831 37.9934 5.5101C36.8802 6.14189 36.0009 7.0216 35.3717 8.14922C34.7345 9.27685 34.4199 10.5564 34.4199 11.9959C34.4199 13.4355 34.7345 14.715 35.3717 15.8427C36.009 16.9703 36.8802 17.85 37.9934 18.4818C39.1065 19.1136 40.3569 19.4255 41.7363 19.4255C43.1156 19.4255 44.366 19.1136 45.4791 18.4818Z" fill="#1D1D1B"/>
<path d="M75.9063 23.6082L71.3891 17.1463H66.4039V23.6082H60.9832V0.399902H71.1148C73.1879 0.399902 74.9867 0.743788 76.5113 1.43156C78.0359 2.11933 79.2136 3.08701 80.0364 4.35059C80.8592 5.61416 81.2706 7.10167 81.2706 8.82909C81.2706 10.5565 80.8512 12.036 80.0203 13.2916C79.1814 14.5392 77.9956 15.4989 76.4549 16.1626L81.7062 23.6242H75.8902L75.9063 23.6082ZM74.535 5.82209C73.688 5.12633 72.4538 4.77444 70.8244 4.77444H66.412V12.8597H70.8244C72.4538 12.8597 73.688 12.5079 74.535 11.7961C75.382 11.0923 75.8095 10.0927 75.8095 8.8131C75.8095 7.53352 75.3901 6.50987 74.535 5.8141V5.82209Z" fill="#1D1D1B"/>
<path d="M92.3379 23.2562C90.6116 22.7604 89.2242 22.1126 88.1755 21.3129L90.0147 17.2662C91.015 17.994 92.2088 18.5858 93.5963 19.0257C94.9757 19.4655 96.3631 19.6894 97.7425 19.6894C99.2832 19.6894 100.421 19.4655 101.155 19.0097C101.889 18.5538 102.26 17.954 102.26 17.2023C102.26 16.6504 102.042 16.1946 101.606 15.8267C101.171 15.4588 100.614 15.1709 99.9366 14.947C99.259 14.7231 98.3394 14.4832 97.1779 14.2193C95.3951 13.8034 93.9351 13.3795 92.7977 12.9557C91.6603 12.5398 90.6842 11.86 89.8695 10.9324C89.0548 10.0047 88.6515 8.76508 88.6515 7.22159C88.6515 5.87004 89.0225 4.65445 89.7566 3.55881C90.4906 2.46318 91.6038 1.59947 93.08 0.95968C94.5643 0.319893 96.3712 0 98.5169 0C100.009 0 101.469 0.175941 102.897 0.527824C104.325 0.879707 105.575 1.39154 106.64 2.05531L104.97 6.13396C102.808 4.91836 100.646 4.31056 98.4846 4.31056C96.9681 4.31056 95.8469 4.55048 95.1209 5.03832C94.3949 5.52616 94.0319 6.16594 94.0319 6.95768C94.0319 7.74942 94.4513 8.34122 95.2822 8.73309C96.1211 9.11696 97.3956 9.50083 99.1138 9.87671C100.897 10.3006 102.357 10.7164 103.494 11.1403C104.631 11.5641 105.607 12.2199 106.422 13.1316C107.237 14.0353 107.64 15.2669 107.64 16.8104C107.64 18.138 107.269 19.3456 106.519 20.4412C105.769 21.5368 104.656 22.4005 103.155 23.0403C101.655 23.6801 99.8479 24 97.7022 24C95.8549 24 94.0641 23.7521 92.3379 23.2562Z" fill="#1D1D1B"/>
<path d="M132.3 19.2976V23.6082H114.174V0.399902H131.864V4.71047H119.555V9.74879H130.42V13.9234H119.555V19.2976H132.292H132.3Z" fill="#1D1D1B"/>
<path d="M162.501 23.6082L162.469 3.75079L152.668 20.5292H151.829L142.028 3.82276V23.6162H140.358V0.399902H141.794L152.265 18.3379L162.735 0.399902H164.139L164.171 23.6082H162.501Z" fill="#1D1D1B"/>
<path d="M189.831 17.0743H176.255L173.278 23.6082H171.439L182.208 0.399902H183.91L194.679 23.6082H192.84L189.831 17.0743ZM189.194 15.6508L183.039 2.25528L176.916 15.6508H189.185H189.194Z" fill="#1D1D1B"/>
<path d="M221 0.399902V23.6082H219.596L203.649 3.45488V23.6082H201.947V0.399902H203.383L219.298 20.5532V0.399902H221Z" fill="#1D1D1B"/>
</g>
<defs>
<clipPath id="clip0_0_1207">
<rect width="220" height="24" fill="white" transform="translate(1)"/>
</clipPath>
</defs>
</svg>
