<svg width="22" height="20" viewBox="0 0 22 20" fill="none" xmlns="http://www.w3.org/2000/svg">
<g clip-path="url(#clip0_0_1382)">
<path d="M14.1991 13.4307C22.7032 11.6606 21.9853 2.77372 21.9853 2.77372H18.0055V0H3.99409V2.76916H0.0142347C0.0142347 2.76916 -0.698862 11.656 7.80048 13.4261C7.80048 13.4261 8.31121 14.1013 10.147 14.9407V16.7108C10.147 17.4179 9.43386 18.6086 4.74091 18.6086V19.9954H17.2586V18.6086C12.5657 18.6086 11.8526 17.4179 11.8526 16.7108V14.9407C13.6883 14.1013 14.1991 13.4261 14.1991 13.4261V13.4307ZM18.0103 4.25182H20.3905C19.9135 9.69434 15.8325 11.3686 15.8325 11.3686C17.09 9.21077 18.0103 4.25182 18.0103 4.25182ZM1.6187 4.25182H3.9989C3.9989 4.25182 4.91918 9.21077 6.17674 11.3686C6.17674 11.3686 2.09571 9.69434 1.6187 4.25182Z" fill="white"/>
</g>
<defs>
<clipPath id="clip0_0_1382">
<rect width="22" height="20" fill="white"/>
</clipPath>
</defs>
</svg>
