<svg width="36" height="44" viewBox="0 0 36 44" fill="none" xmlns="http://www.w3.org/2000/svg">
<g clip-path="url(#clip0_0_1348)">
<path d="M24.2534 5.74732C25.0399 5.74732 25.6816 5.13242 25.6816 4.37868V1.36865C25.6816 0.614899 25.0399 0 24.2534 0C23.4669 0 22.8252 0.614899 22.8252 1.36865V4.37372C22.8252 5.12746 23.4669 5.74236 24.2534 5.74236V5.74732Z" fill="black"/>
<path d="M28.9105 8.14741C29.2624 8.14741 29.6091 8.02344 29.8885 7.7755L32.1395 5.64319C32.4034 5.38533 32.5483 5.04316 32.5535 4.67621C32.5535 4.12082 32.2068 3.62493 31.6686 3.4117C31.1356 3.19847 30.5198 3.31252 30.111 3.70427L27.9998 5.71757L27.8652 5.83658C27.3374 6.3771 27.3529 7.21515 27.9015 7.74079C28.1809 8.00856 28.5483 8.14245 28.9105 8.14245V8.14741Z" fill="black"/>
<path d="M34.5668 9.883H31.4258C30.6392 9.883 29.9976 10.4979 29.9976 11.2516C29.9976 12.0054 30.6392 12.6203 31.4258 12.6203H34.5668C35.3533 12.6203 35.995 12.0054 35.995 11.2516C35.995 10.4979 35.3533 9.883 34.5668 9.883Z" fill="black"/>
<path d="M18.867 5.30101L17.0507 3.58028C16.2486 2.6976 15.136 2.167 13.92 2.08766C12.7091 2.00832 11.5241 2.38519 10.6031 3.15382C9.68197 3.92244 9.12828 4.9886 9.04549 6.15393C8.96787 7.24984 9.30939 8.31104 10.0183 9.16892L8.69361 13.0368C7.35338 16.9543 5.04031 20.5693 2.00797 23.4802C0.0467812 25.315 -0.537954 28.0671 0.517674 30.4871C1.5733 32.907 4.03126 34.4442 6.75312 34.3947H6.77382C8.4918 34.3947 10.1632 33.7401 11.3793 32.5995L21.9355 42.7107C22.7997 43.5388 23.9536 43.995 25.1749 43.995C26.3961 43.995 27.55 43.5388 28.4142 42.7107C29.2783 41.8825 29.7544 40.7767 29.7544 39.6064C29.7544 38.4361 29.2783 37.3303 28.4142 36.5022L18.9756 27.4225C20.083 26.9068 21.2214 26.4654 22.3598 26.1084L26.4064 24.8389C28.2072 26.0439 30.6807 25.8406 32.2434 24.3381C33.1076 23.5199 33.5992 22.3892 33.5992 21.2289C33.5992 20.0685 33.1076 18.9379 32.2434 18.1246L18.8566 5.30101H18.867ZM21.4802 23.505C19.7829 24.0356 18.127 24.715 16.5435 25.5332L14.7014 26.5745C12.8126 27.7101 11.0481 29.0589 9.45946 30.5763C7.97951 31.9995 5.56813 32.0045 4.083 30.5862C2.59788 29.168 2.59271 26.8522 4.07265 25.429C7.431 22.2107 9.9821 18.2188 11.462 13.8947L12.3055 11.4153L24.0675 22.6967L21.4905 23.5L21.4802 23.505ZM16.378 28.8011L26.3961 38.4361C27.0688 39.0808 27.0688 40.1271 26.3961 40.7718C25.7492 41.3966 24.6108 41.3966 23.9588 40.7718L13.5164 30.7549C14.4116 30.0557 15.3741 29.3961 16.3831 28.7961L16.378 28.8011ZM30.2357 22.3942C29.5474 23.024 28.4763 23.024 27.7932 22.3942L12.6005 7.8449C12.2693 7.53745 12.0882 7.12091 12.0882 6.67957C12.0882 6.23823 12.2745 5.81673 12.6005 5.51424L12.7247 5.39522C13.3818 4.8795 14.4219 4.92413 15.0274 5.5192L30.2305 20.0685C30.5565 20.3759 30.7428 20.7975 30.7428 21.2289C30.7428 21.6603 30.5565 22.0868 30.2357 22.3892V22.3942Z" fill="black"/>
</g>
<defs>
<clipPath id="clip0_0_1348">
<rect width="36" height="44" fill="white"/>
</clipPath>
</defs>
</svg>
