<svg width="20" height="20" viewBox="0 0 20 20" fill="none" xmlns="http://www.w3.org/2000/svg">
<path d="M19.7958 18.8141L13.2442 12.2625C14.3572 10.921 14.9696 9.23208 14.9696 7.48481C14.9696 3.35844 11.6111 0 7.48479 0C3.35843 0 0 3.35844 0 7.48481C0 11.6112 3.35843 14.9696 7.48479 14.9696C9.22962 14.9696 10.9185 14.3548 12.2624 13.2369L18.8213 19.7959C18.9477 19.9247 19.1275 20 19.3171 20H19.3195C19.5042 20 19.6816 19.9295 19.8055 19.8056C19.9319 19.6792 20.0024 19.4945 19.9999 19.3026C19.9975 19.113 19.9222 18.9332 19.7982 18.8165L19.7958 18.8141ZM13.5844 7.48238C13.5844 10.8457 10.8481 13.5844 7.48235 13.5844C4.11663 13.5844 1.38031 10.8481 1.38031 7.48238C1.38031 4.11665 4.11663 1.38032 7.48235 1.38032C10.8481 1.38032 13.5844 4.11665 13.5844 7.48238Z" fill="#607545"/>
</svg>
