<svg width="40" height="40" viewBox="0 0 40 40" fill="none" xmlns="http://www.w3.org/2000/svg">
<g clip-path="url(#clip0_0_1663)">
<path d="M20 0C8.97778 0 0 8.97778 0 20C0 31.0222 8.97778 40 20 40C31.0222 40 40 31.0222 40 20C40 8.97778 31.0222 0 20 0ZM20 37.3333C10.4444 37.3333 2.66667 29.5556 2.66667 20C2.66667 10.4444 10.4444 2.66667 20 2.66667C29.5556 2.66667 37.3333 10.4444 37.3333 20C37.3333 29.5556 29.5556 37.3333 20 37.3333Z" fill="#1D1D1B"/>
<path d="M27.0221 18.7556H21.5554V8.8445C21.5554 7.95561 20.8443 7.28894 19.9999 7.28894C19.1554 7.28894 18.4443 7.95561 18.4443 8.8445V20.3112C18.4443 21.2001 19.111 21.8667 19.9999 21.8667H27.0221C27.911 21.8667 28.5777 21.1556 28.5777 20.3112C28.5777 19.4667 27.911 18.7556 27.0221 18.7556Z" fill="#1D1D1B"/>
</g>
<defs>
<clipPath id="clip0_0_1663">
<rect width="40" height="40" fill="white"/>
</clipPath>
</defs>
</svg>
